<svg width="27" height="27" viewBox="0 0 27 27" fill="none" xmlns="http://www.w3.org/2000/svg">
<path d="M17.62 22H2.27C1.57 22 1 21.43 1 20.73V6.27C1 5.57 1.57 5 2.27 5H17.62C18.32 5 18.89 5.57 18.89 6.27V20.73C18.89 21.43 18.32 22 17.62 22Z" fill="#ADB2B8"/>
<path d="M20.8901 10H18.8901V18H20.8901V10Z" fill="#717787"/>
<path d="M20.8901 18L23.8901 20V8L20.8901 10V18Z" fill="#ADB2B8"/>
<path d="M24.8901 8H23.8901V20H24.8901V8Z" fill="#414244"/>
<path d="M3.89014 13.6C3.89014 13.6 6.29014 10 9.89014 10C13.4901 10 15.8901 13.6 15.8901 13.6C15.8901 13.6 13.4901 17.2 9.89014 17.2C6.29014 17.2 3.89014 13.6 3.89014 13.6Z" fill="white"/>
<path d="M9.89023 16C11.2157 16 12.2902 14.9254 12.2902 13.6C12.2902 12.2745 11.2157 11.2 9.89023 11.2C8.56474 11.2 7.49023 12.2745 7.49023 13.6C7.49023 14.9254 8.56474 16 9.89023 16Z" fill="#6C6E71"/>
</svg>
