<svg width="40" height="40" viewBox="0 0 40 40" fill="none" xmlns="http://www.w3.org/2000/svg">
<path d="M21 28.1001C24.866 28.1001 28 24.9661 28 21.1001C28 17.2341 24.866 14.1001 21 14.1001C17.134 14.1001 14 17.2341 14 21.1001C14 24.9661 17.134 28.1001 21 28.1001Z" stroke="#5B5B5B" stroke-width="2" stroke-miterlimit="10"/>
<path d="M24.5 5L28.9 9.2H33.2C34.8 9.2 36 10.5 36 12V31.5L31.8 34.2H9.2L5 31.5V12.1C5 10.5 6.3 9.3 7.8 9.3H12.1L16.5 5H24.5Z" stroke="#5B5B5B" stroke-width="2" stroke-miterlimit="10"/>
<path d="M31 15C31.5523 15 32 14.5523 32 14C32 13.4477 31.5523 13 31 13C30.4477 13 30 13.4477 30 14C30 14.5523 30.4477 15 31 15Z" stroke="#5B5B5B" stroke-width="2" stroke-miterlimit="10"/>
</svg>
