<svg width="28" height="28" viewBox="0 0 28 28" fill="none" xmlns="http://www.w3.org/2000/svg">
<path d="M5 22.9C5 23.9 9.59783 24.8 14.1957 24.8C18.5978 24.8 23 24 23 22.9C23 13.1 5 13.4 5 22.9Z" fill="#7FB2E0" stroke="#195691" stroke-miterlimit="10"/>
<path d="M11.5547 12.5V16.3C11.5547 17.2 12.6308 18 14.0003 18C15.3699 18 16.446 17.3 16.446 16.3V12.5H11.5547Z" fill="white" stroke="#195691" stroke-miterlimit="10"/>
<path d="M14.0002 15C16.7016 15 18.8915 12.5376 18.8915 9.5C18.8915 6.46243 16.7016 4 14.0002 4C11.2988 4 9.10889 6.46243 9.10889 9.5C9.10889 12.5376 11.2988 15 14.0002 15Z" fill="white" stroke="#195691" stroke-miterlimit="10"/>
<path d="M14.5869 4.59998C14.5869 4.59998 18.1087 11.1 12.3369 14.2C12.3369 14.2 15.3695 15.9 17.6195 12.5C19.8695 8.99998 17.2282 4.59998 14.5869 4.59998Z" fill="#EDEEEF"/>
<path d="M12.0435 15.2C12.0435 15.2 14 16.1 15.9565 15.2V16.1C15.9565 16.1 15.2717 16.5 14.0978 16.5C12.9239 16.5 12.0435 16 12.0435 16V15.2Z" fill="#EDEEEF"/>
<path d="M16.9347 16.5C16.9347 16.5 22.413 17.5 22.5108 22.7C22.5108 22.8 22.5108 22.9 22.413 22.9C22.0217 23.2 20.0652 24.2 14.5869 24.2C14.5869 24.2 20.3587 22.3 16.3478 17.4C16.4456 17.5 16.8369 17.2 16.9347 16.5Z" fill="#5082C3"/>
</svg>
