<svg width="28" height="28" viewBox="0 0 28 28" fill="none" xmlns="http://www.w3.org/2000/svg">
<path d="M21.0526 24H6.94737C5.36842 24 4 22.6316 4 21.0526V6.94737C4 5.36842 5.36842 4 6.94737 4H21.0526C22.6316 4 24 5.36842 24 6.94737V21.0526C24 22.6316 22.6316 24 21.0526 24Z" fill="#8D7CB8"/>
<path d="M21.0526 24H6.94737C5.36842 24 4 22.6316 4 21.0526V6.94737C4 5.36842 5.36842 4 6.94737 4H21.0526C22.6316 4 24 5.36842 24 6.94737V21.0526C24 22.6316 22.6316 24 21.0526 24Z" stroke="#6A1485" stroke-miterlimit="10"/>
<path d="M11.8377 10.386C11.8377 10.386 11.1691 9.26318 9.83198 9.26318C8.04914 9.26318 7.15771 11.0597 7.15771 13.3614C7.15771 15.6632 7.82628 17.6842 9.83198 17.6842C11.1691 17.6842 12.0605 16.5614 12.0605 16.5614V13.7544H10.6986" stroke="white" stroke-miterlimit="10" stroke-linecap="round" stroke-linejoin="round"/>
<path d="M15.0024 9.26318V17.6842" stroke="white" stroke-miterlimit="10" stroke-linecap="round"/>
<path d="M17.9443 17.6842V9.26318H20.8423" stroke="white" stroke-miterlimit="10" stroke-linecap="round" stroke-linejoin="round"/>
<path d="M17.9443 13.4467H20.8423" stroke="white" stroke-miterlimit="10" stroke-linecap="round" stroke-linejoin="round"/>
</svg>
