<svg width="40" height="40" viewBox="0 0 40 40" fill="none" xmlns="http://www.w3.org/2000/svg">
<path d="M26.2608 23.7463C34.5299 20.0672 33.9929 6 33.9929 6C33.9929 6 25.9386 6 21.2134 12.9254C20.6765 13.791 20.0321 14.5485 19.71 15.6306C19.2804 14.5485 18.8508 13.5746 18.0991 12.9254C13.8035 8.16418 6.07135 9.24627 6.07135 9.24627C6.07135 9.24627 4.78266 20.0672 13.1591 23.7463C13.1591 23.7463 14.6626 24.3955 14.1256 22.556C13.5887 20.7164 11.0113 14.7649 13.3739 16.1716C15.7365 17.6866 19.173 19.0933 18.7434 30.0224C18.7434 30.0224 14.0183 31.4291 12.6222 33.8097C12.6222 33.8097 12.0852 35 13.3739 35C14.3404 35 17.6695 35 19.2804 35C19.71 35 20.0321 35 20.0321 35C21.5356 35 24.8647 35 25.9386 35C27.2273 35 26.6903 33.8097 26.6903 33.8097C25.2943 31.3209 20.5691 30.0224 20.5691 30.0224C20.1395 19.2015 23.0391 16.9291 26.3682 15.0896C28.7308 13.791 26.4756 20.3918 25.1869 22.556C24.3278 24.1791 26.2608 23.7463 26.2608 23.7463Z" fill="#85888A"/>
</svg>
