<svg width="40" height="40" viewBox="0 0 40 40" fill="none" xmlns="http://www.w3.org/2000/svg">
<path d="M21.4595 2.00917L21.3502 4.00618L21.4595 2.00917ZM26.0447 13.4611L24.06 13.214C23.9892 13.7831 24.166 14.3552 24.5457 14.7851C24.9253 15.2149 25.4712 15.4611 26.0447 15.4611V13.4611ZM13.3125 17.0461C14.2313 18.8226 14.2321 18.8222 14.233 18.8217C14.2333 18.8216 14.2341 18.8211 14.2347 18.8208C14.2359 18.8202 14.2372 18.8196 14.2385 18.8189C14.2411 18.8175 14.2441 18.816 14.2472 18.8143C14.2536 18.8109 14.261 18.807 14.2695 18.8025C14.2863 18.7934 14.3073 18.7821 14.332 18.7683C14.3815 18.7408 14.4465 18.7037 14.5247 18.6567C14.6811 18.563 14.8918 18.4294 15.1402 18.2538C15.6353 17.9039 16.2906 17.3796 16.9647 16.6626C18.3178 15.2235 19.7721 12.9763 20.0995 9.82608L18.1102 9.61935L16.1209 9.41261C15.9051 11.4886 14.9605 12.9548 14.0506 13.9226C13.5932 14.409 13.151 14.7615 12.8313 14.9875C12.6723 15.0999 12.5465 15.179 12.468 15.226C12.4289 15.2495 12.4019 15.2648 12.3888 15.272C12.3823 15.2757 12.3793 15.2773 12.38 15.2769C12.3804 15.2767 12.3817 15.276 12.3839 15.2748C12.3851 15.2742 12.3864 15.2735 12.3881 15.2726C12.3889 15.2722 12.3898 15.2717 12.3907 15.2712C12.3912 15.271 12.3919 15.2706 12.3921 15.2705C12.3929 15.2701 12.3937 15.2697 13.3125 17.0461ZM18.1102 9.61935L20.0995 9.82608C20.2384 8.48926 20.3115 7.28127 20.3853 6.35907C20.464 5.37498 20.542 4.74711 20.6606 4.31726C20.7717 3.91419 20.8475 3.95452 20.7376 4.0306C20.6496 4.09148 20.7284 3.97214 21.3502 4.00618L21.4595 2.00917L21.5688 0.0121632C20.516 -0.0454829 19.4066 0.0873252 18.4615 0.741315C17.4944 1.41051 17.0441 2.38491 16.8045 3.25403C16.5722 4.09636 16.4749 5.07878 16.398 6.04021C16.3162 7.06353 16.2535 8.1363 16.1209 9.41261L18.1102 9.61935ZM21.4595 2.00917L21.3502 4.00618C21.4719 4.01285 22.3449 4.251 23.1424 5.6644C23.9051 7.01605 24.5356 9.39385 24.06 13.214L26.0447 13.4611L28.0294 13.7082C28.5811 9.27637 27.9149 5.98272 26.6261 3.69867C25.3721 1.47636 23.4388 0.114543 21.5688 0.0121632L21.4595 2.00917ZM26.0447 13.4611C26.0447 15.4611 26.0447 15.4611 26.0447 15.4611C26.0447 15.4611 26.0447 15.4611 26.0448 15.4611C26.0448 15.4611 26.0448 15.4611 26.0449 15.4611C26.0449 15.4611 26.045 15.4611 26.0451 15.4611C26.0451 15.4611 26.0452 15.4611 26.0453 15.4611C26.0453 15.4611 26.0454 15.4611 26.0455 15.4611C26.0456 15.4611 26.0457 15.4611 26.0458 15.4611C26.0459 15.4611 26.046 15.4611 26.0462 15.4611C26.0463 15.4611 26.0464 15.4611 26.0465 15.4611C26.0467 15.4611 26.0468 15.4611 26.047 15.4611C26.0471 15.4611 26.0473 15.4611 26.0475 15.4611C26.0476 15.4611 26.0478 15.4611 26.048 15.4611C26.0482 15.4611 26.0484 15.4611 26.0486 15.4611C26.0488 15.4611 26.049 15.4611 26.0492 15.4611C26.0494 15.4611 26.0496 15.4611 26.0499 15.4611C26.0501 15.4611 26.0503 15.4611 26.0506 15.4611C26.0508 15.4611 26.0511 15.4611 26.0513 15.4611C26.0516 15.4611 26.0519 15.4611 26.0522 15.4611C26.0524 15.4611 26.0527 15.4611 26.053 15.4611C26.0533 15.4611 26.0536 15.4611 26.0539 15.4611C26.0542 15.4611 26.0546 15.4611 26.0549 15.4611C26.0552 15.4611 26.0555 15.4611 26.0559 15.4611C26.0562 15.4611 26.0566 15.4611 26.0569 15.4611C26.0573 15.4611 26.0577 15.4611 26.058 15.4611C26.0584 15.4611 26.0588 15.4611 26.0592 15.4611C26.0596 15.4611 26.06 15.4611 26.0604 15.4611C26.0608 15.4611 26.0612 15.4611 26.0616 15.4611C26.062 15.4611 26.0625 15.4611 26.0629 15.4611C26.0633 15.4611 26.0638 15.4611 26.0642 15.4611C26.0647 15.4611 26.0651 15.4611 26.0656 15.4611C26.0661 15.4611 26.0666 15.4611 26.067 15.4611C26.0675 15.4611 26.068 15.4611 26.0685 15.4611C26.069 15.4611 26.0695 15.4611 26.0701 15.4611C26.0706 15.4611 26.0711 15.4611 26.0716 15.4611C26.0722 15.4611 26.0727 15.4611 26.0733 15.4611C26.0738 15.4611 26.0744 15.4611 26.0749 15.4611C26.0755 15.4611 26.0761 15.4611 26.0767 15.4611C26.0773 15.4611 26.0778 15.4611 26.0784 15.4611C26.079 15.4611 26.0797 15.4611 26.0803 15.4611C26.0809 15.4611 26.0815 15.4611 26.0821 15.4611C26.0828 15.4611 26.0834 15.4611 26.0841 15.4611C26.0847 15.4611 26.0854 15.4611 26.086 15.4611C26.0867 15.4611 26.0874 15.4611 26.0881 15.4611C26.0887 15.4611 26.0894 15.4611 26.0901 15.4611C26.0908 15.4611 26.0915 15.4611 26.0923 15.4611C26.093 15.4611 26.0937 15.4611 26.0944 15.4611C26.0952 15.4611 26.0959 15.4611 26.0966 15.4611C26.0974 15.4611 26.0981 15.4611 26.0989 15.4611C26.0997 15.4611 26.1005 15.4611 26.1012 15.4611C26.102 15.4611 26.1028 15.4611 26.1036 15.4611C26.1044 15.4611 26.1052 15.4611 26.106 15.4611C26.1068 15.4611 26.1077 15.4611 26.1085 15.4611C26.1093 15.4611 26.1102 15.4611 26.111 15.4611C26.1119 15.4611 26.1127 15.4611 26.1136 15.4611C26.1145 15.4611 26.1153 15.4611 26.1162 15.4611C26.1171 15.4611 26.118 15.4611 26.1189 15.4611C26.1198 15.4611 26.1207 15.4611 26.1216 15.4611C26.1225 15.4611 26.1234 15.4611 26.1244 15.4611C26.1253 15.4611 26.1263 15.4611 26.1272 15.4611C26.1282 15.4611 26.1291 15.4611 26.1301 15.4611C26.1311 15.4611 26.132 15.4611 26.133 15.4611C26.134 15.4611 26.135 15.4611 26.136 15.4611C26.137 15.4611 26.138 15.4611 26.139 15.4611C26.14 15.4611 26.1411 15.4611 26.1421 15.4611C26.1431 15.4611 26.1442 15.4611 26.1452 15.4611C26.1463 15.4611 26.1474 15.4611 26.1484 15.4611C26.1495 15.4611 26.1506 15.4611 26.1517 15.4611C26.1527 15.4611 26.1538 15.4611 26.1549 15.4611C26.1561 15.4611 26.1572 15.4611 26.1583 15.4611C26.1594 15.4611 26.1605 15.4611 26.1617 15.4611C26.1628 15.4611 26.164 15.4611 26.1651 15.4611C26.1663 15.4611 26.1674 15.4611 26.1686 15.4611C26.1698 15.4611 26.171 15.4611 26.1722 15.4611C26.1734 15.4611 26.1746 15.4611 26.1758 15.4611C26.177 15.4611 26.1782 15.4611 26.1794 15.4611C26.1807 15.4611 26.1819 15.4611 26.1831 15.4611C26.1844 15.4611 26.1856 15.4611 26.1869 15.4611C26.1882 15.4611 26.1894 15.4611 26.1907 15.4611C26.192 15.4611 26.1933 15.4611 26.1946 15.4611C26.1959 15.4611 26.1972 15.4611 26.1985 15.4611C26.1998 15.4611 26.2011 15.4611 26.2025 15.4611C26.2038 15.4611 26.2051 15.4611 26.2065 15.4611C26.2078 15.4611 26.2092 15.4611 26.2106 15.4611C26.2119 15.4611 26.2133 15.4611 26.2147 15.4611C26.2161 15.4611 26.2175 15.4611 26.2189 15.4611C26.2203 15.4611 26.2217 15.4611 26.2231 15.4611C26.2245 15.4611 26.226 15.4611 26.2274 15.4611C26.2288 15.4611 26.2303 15.4611 26.2317 15.4611C26.2332 15.4611 26.2347 15.4611 26.2361 15.4611C26.2376 15.4611 26.2391 15.4611 26.2406 15.4611C26.2421 15.4611 26.2436 15.4611 26.2451 15.4611C26.2466 15.4611 26.2481 15.4611 26.2497 15.4611C26.2512 15.4611 26.2527 15.4611 26.2543 15.4611C26.2558 15.4611 26.2574 15.4611 26.2589 15.4611C26.2605 15.4611 26.2621 15.4611 26.2637 15.4611C26.2653 15.4611 26.2668 15.4611 26.2684 15.4611C26.2701 15.4611 26.2717 15.4611 26.2733 15.4611C26.2749 15.4611 26.2765 15.4611 26.2782 15.4611C26.2798 15.4611 26.2815 15.4611 26.2831 15.4611C26.2848 15.4611 26.2864 15.4611 26.2881 15.4611C26.2898 15.4611 26.2915 15.4611 26.2932 15.4611C26.2949 15.4611 26.2966 15.4611 26.2983 15.4611C26.3 15.4611 26.3017 15.4611 26.3034 15.4611C26.3052 15.4611 26.3069 15.4611 26.3086 15.4611C26.3104 15.4611 26.3121 15.4611 26.3139 15.4611C26.3157 15.4611 26.3175 15.4611 26.3192 15.4611C26.321 15.4611 26.3228 15.4611 26.3246 15.4611C26.3264 15.4611 26.3282 15.4611 26.3301 15.4611C26.3319 15.4611 26.3337 15.4611 26.3356 15.4611C26.3374 15.4611 26.3392 15.4611 26.3411 15.4611C26.343 15.4611 26.3448 15.4611 26.3467 15.4611C26.3486 15.4611 26.3505 15.4611 26.3524 15.4611C26.3543 15.4611 26.3562 15.4611 26.3581 15.4611C26.36 15.4611 26.3619 15.4611 26.3639 15.4611C26.3658 15.4611 26.3677 15.4611 26.3697 15.4611C26.3716 15.4611 26.3736 15.4611 26.3756 15.4611C26.3775 15.4611 26.3795 15.4611 26.3815 15.4611C26.3835 15.4611 26.3855 15.4611 26.3875 15.4611C26.3895 15.4611 26.3915 15.4611 26.3936 15.4611C26.3956 15.4611 26.3976 15.4611 26.3997 15.4611C26.4017 15.4611 26.4038 15.4611 26.4058 15.4611C26.4079 15.4611 26.41 15.4611 26.4121 15.4611C26.4142 15.4611 26.4163 15.4611 26.4184 15.4611C26.4205 15.4611 26.4226 15.4611 26.4247 15.4611C26.4268 15.4611 26.4289 15.4611 26.4311 15.4611C26.4332 15.4611 26.4354 15.4611 26.4375 15.4611C26.4397 15.4611 26.4419 15.4611 26.4441 15.4611C26.4462 15.4611 26.4484 15.4611 26.4506 15.4611C26.4528 15.4611 26.455 15.4611 26.4572 15.4611C26.4595 15.4611 26.4617 15.4611 26.4639 15.4611C26.4662 15.4611 26.4684 15.4611 26.4707 15.4611C26.4729 15.4611 26.4752 15.4611 26.4775 15.4611C26.4797 15.4611 26.482 15.4611 26.4843 15.4611C26.4866 15.4611 26.4889 15.4611 26.4912 15.4611C26.4936 15.4611 26.4959 15.4611 26.4982 15.4611C26.5005 15.4611 26.5029 15.4611 26.5052 15.4611C26.5076 15.4611 26.51 15.4611 26.5123 15.4611C26.5147 15.4611 26.5171 15.4611 26.5195 15.4611C26.5219 15.4611 26.5243 15.4611 26.5267 15.4611C26.5291 15.4611 26.5315 15.4611 26.534 15.4611C26.5364 15.4611 26.5388 15.4611 26.5413 15.4611C26.5437 15.4611 26.5462 15.4611 26.5487 15.4611C26.5511 15.4611 26.5536 15.4611 26.5561 15.4611C26.5586 15.4611 26.5611 15.4611 26.5636 15.4611C26.5661 15.4611 26.5686 15.4611 26.5712 15.4611C26.5737 15.4611 26.5762 15.4611 26.5788 15.4611C26.5813 15.4611 26.5839 15.4611 26.5864 15.4611C26.589 15.4611 26.5916 15.4611 26.5942 15.4611C26.5968 15.4611 26.5994 15.4611 26.602 15.4611C26.6046 15.4611 26.6072 15.4611 26.6098 15.4611C26.6125 15.4611 26.6151 15.4611 26.6177 15.4611C26.6204 15.4611 26.6231 15.4611 26.6257 15.4611C26.6284 15.4611 26.6311 15.4611 26.6338 15.4611C26.6364 15.4611 26.6391 15.4611 26.6418 15.4611C26.6446 15.4611 26.6473 15.4611 26.65 15.4611C26.6527 15.4611 26.6555 15.4611 26.6582 15.4611C26.661 15.4611 26.6637 15.4611 26.6665 15.4611C26.6693 15.4611 26.672 15.4611 26.6748 15.4611C26.6776 15.4611 26.6804 15.4611 26.6832 15.4611C26.686 15.4611 26.6888 15.4611 26.6917 15.4611C26.6945 15.4611 26.6973 15.4611 26.7002 15.4611C26.703 15.4611 26.7059 15.4611 26.7088 15.4611C26.7116 15.4611 26.7145 15.4611 26.7174 15.4611C26.7203 15.4611 26.7232 15.4611 26.7261 15.4611C26.729 15.4611 26.7319 15.4611 26.7348 15.4611C26.7378 15.4611 26.7407 15.4611 26.7437 15.4611C26.7466 15.4611 26.7496 15.4611 26.7525 15.4611C26.7555 15.4611 26.7585 15.4611 26.7615 15.4611C26.7645 15.4611 26.7675 15.4611 26.7705 15.4611C26.7735 15.4611 26.7765 15.4611 26.7796 15.4611C26.7826 15.4611 26.7856 15.4611 26.7887 15.4611C26.7917 15.4611 26.7948 15.4611 26.7979 15.4611C26.8009 15.4611 26.804 15.4611 26.8071 15.4611C26.8102 15.4611 26.8133 15.4611 26.8164 15.4611C26.8195 15.4611 26.8227 15.4611 26.8258 15.4611C26.8289 15.4611 26.8321 15.4611 26.8352 15.4611C26.8384 15.4611 26.8415 15.4611 26.8447 15.4611C26.8479 15.4611 26.8511 15.4611 26.8543 15.4611C26.8575 15.4611 26.8607 15.4611 26.8639 15.4611C26.8671 15.4611 26.8703 15.4611 26.8736 15.4611C26.8768 15.4611 26.8801 15.4611 26.8833 15.4611C26.8866 15.4611 26.8898 15.4611 26.8931 15.4611C26.8964 15.4611 26.8997 15.4611 26.903 15.4611C26.9063 15.4611 26.9096 15.4611 26.9129 15.4611C26.9162 15.4611 26.9196 15.4611 26.9229 15.4611C26.9263 15.4611 26.9296 15.4611 26.933 15.4611C26.9363 15.4611 26.9397 15.4611 26.9431 15.4611C26.9465 15.4611 26.9499 15.4611 26.9533 15.4611C26.9567 15.4611 26.9601 15.4611 26.9635 15.4611C26.9669 15.4611 26.9704 15.4611 26.9738 15.4611C26.9773 15.4611 26.9807 15.4611 26.9842 15.4611C26.9877 15.4611 26.9911 15.4611 26.9946 15.4611C26.9981 15.4611 27.0016 15.4611 27.0051 15.4611C27.0086 15.4611 27.0122 15.4611 27.0157 15.4611C27.0192 15.4611 27.0228 15.4611 27.0263 15.4611C27.0299 15.4611 27.0334 15.4611 27.037 15.4611C27.0406 15.4611 27.0442 15.4611 27.0478 15.4611C27.0514 15.4611 27.055 15.4611 27.0586 15.4611C27.0622 15.4611 27.0658 15.4611 27.0695 15.4611C27.0731 15.4611 27.0768 15.4611 27.0804 15.4611C27.0841 15.4611 27.0877 15.4611 27.0914 15.4611C27.0951 15.4611 27.0988 15.4611 27.1025 15.4611C27.1062 15.4611 27.1099 15.4611 27.1136 15.4611C27.1174 15.4611 27.1211 15.4611 27.1248 15.4611C27.1286 15.4611 27.1323 15.4611 27.1361 15.4611C27.1399 15.4611 27.1437 15.4611 27.1474 15.4611C27.1512 15.4611 27.155 15.4611 27.1588 15.4611C27.1626 15.4611 27.1665 15.4611 27.1703 15.4611C27.1741 15.4611 27.178 15.4611 27.1818 15.4611C27.1857 15.4611 27.1895 15.4611 27.1934 15.4611C27.1973 15.4611 27.2012 15.4611 27.2051 15.4611C27.209 15.4611 27.2129 15.4611 27.2168 15.4611C27.2207 15.4611 27.2246 15.4611 27.2286 15.4611C27.2325 15.4611 27.2365 15.4611 27.2404 15.4611C27.2444 15.4611 27.2484 15.4611 27.2524 15.4611C27.2563 15.4611 27.2603 15.4611 27.2643 15.4611C27.2683 15.4611 27.2724 15.4611 27.2764 15.4611C27.2804 15.4611 27.2845 15.4611 27.2885 15.4611C27.2926 15.4611 27.2966 15.4611 27.3007 15.4611C27.3048 15.4611 27.3088 15.4611 27.3129 15.4611C27.317 15.4611 27.3211 15.4611 27.3252 15.4611C27.3294 15.4611 27.3335 15.4611 27.3376 15.4611C27.3418 15.4611 27.3459 15.4611 27.3501 15.4611C27.3542 15.4611 27.3584 15.4611 27.3626 15.4611C27.3668 15.4611 27.371 15.4611 27.3752 15.4611C27.3794 15.4611 27.3836 15.4611 27.3878 15.4611C27.392 15.4611 27.3963 15.4611 27.4005 15.4611C27.4048 15.4611 27.409 15.4611 27.4133 15.4611C27.4176 15.4611 27.4219 15.4611 27.4261 15.4611C27.4304 15.4611 27.4347 15.4611 27.4391 15.4611C27.4434 15.4611 27.4477 15.4611 27.452 15.4611C27.4564 15.4611 27.4607 15.4611 27.4651 15.4611C27.4694 15.4611 27.4738 15.4611 27.4782 15.4611C27.4826 15.4611 27.487 15.4611 27.4914 15.4611C27.4958 15.4611 27.5002 15.4611 27.5046 15.4611C27.509 15.4611 27.5135 15.4611 27.5179 15.4611C27.5224 15.4611 27.5268 15.4611 27.5313 15.4611C27.5358 15.4611 27.5403 15.4611 27.5448 15.4611C27.5493 15.4611 27.5538 15.4611 27.5583 15.4611C27.5628 15.4611 27.5673 15.4611 27.5719 15.4611C27.5764 15.4611 27.581 15.4611 27.5855 15.4611C27.5901 15.4611 27.5947 15.4611 27.5993 15.4611C27.6038 15.4611 27.6084 15.4611 27.613 15.4611C27.6177 15.4611 27.6223 15.4611 27.6269 15.4611C27.6315 15.4611 27.6362 15.4611 27.6408 15.4611C27.6455 15.4611 27.6501 15.4611 27.6548 15.4611C27.6595 15.4611 27.6642 15.4611 27.6689 15.4611C27.6736 15.4611 27.6783 15.4611 27.683 15.4611C27.6877 15.4611 27.6925 15.4611 27.6972 15.4611C27.702 15.4611 27.7067 15.4611 27.7115 15.4611C27.7163 15.4611 27.721 15.4611 27.7258 15.4611C27.7306 15.4611 27.7354 15.4611 27.7402 15.4611C27.745 15.4611 27.7499 15.4611 27.7547 15.4611C27.7595 15.4611 27.7644 15.4611 27.7693 15.4611C27.7741 15.4611 27.779 15.4611 27.7839 15.4611C27.7888 15.4611 27.7936 15.4611 27.7986 15.4611C27.8035 15.4611 27.8084 15.4611 27.8133 15.4611C27.8182 15.4611 27.8232 15.4611 27.8281 15.4611C27.8331 15.4611 27.838 15.4611 27.843 15.4611C27.848 15.4611 27.853 15.4611 27.858 15.4611C27.863 15.4611 27.868 15.4611 27.873 15.4611C27.878 15.4611 27.8831 15.4611 27.8881 15.4611C27.8932 15.4611 27.8982 15.4611 27.9033 15.4611C27.9084 15.4611 27.9134 15.4611 27.9185 15.4611C27.9236 15.4611 27.9287 15.4611 27.9338 15.4611C27.939 15.4611 27.9441 15.4611 27.9492 15.4611C27.9544 15.4611 27.9595 15.4611 27.9647 15.4611C27.9698 15.4611 27.975 15.4611 27.9802 15.4611C27.9854 15.4611 27.9906 15.4611 27.9958 15.4611C28.001 15.4611 28.0062 15.4611 28.0115 15.4611C28.0167 15.4611 28.0219 15.4611 28.0272 15.4611C28.0325 15.4611 28.0377 15.4611 28.043 15.4611C28.0483 15.4611 28.0536 15.4611 28.0589 15.4611C28.0642 15.4611 28.0695 15.4611 28.0748 15.4611C28.0802 15.4611 28.0855 15.4611 28.0908 15.4611C28.0962 15.4611 28.1016 15.4611 28.1069 15.4611C28.1123 15.4611 28.1177 15.4611 28.1231 15.4611C28.1285 15.4611 28.1339 15.4611 28.1393 15.4611C28.1447 15.4611 28.1502 15.4611 28.1556 15.4611C28.1611 15.4611 28.1665 15.4611 28.172 15.4611C28.1775 15.4611 28.183 15.4611 28.1885 15.4611C28.1939 15.4611 28.1995 15.4611 28.205 15.4611C28.2105 15.4611 28.216 15.4611 28.2216 15.4611C28.2271 15.4611 28.2327 15.4611 28.2382 15.4611C28.2438 15.4611 28.2494 15.4611 28.255 15.4611C28.2606 15.4611 28.2662 15.4611 28.2718 15.4611C28.2774 15.4611 28.283 15.4611 28.2886 15.4611C28.2943 15.4611 28.2999 15.4611 28.3056 15.4611C28.3113 15.4611 28.3169 15.4611 28.3226 15.4611C28.3283 15.4611 28.334 15.4611 28.3397 15.4611C28.3454 15.4611 28.3512 15.4611 28.3569 15.4611C28.3626 15.4611 28.3684 15.4611 28.3741 15.4611C28.3799 15.4611 28.3857 15.4611 28.3914 15.4611C28.3972 15.4611 28.403 15.4611 28.4088 15.4611C28.4146 15.4611 28.4205 15.4611 28.4263 15.4611C28.4321 15.4611 28.438 15.4611 28.4438 15.4611C28.4497 15.4611 28.4555 15.4611 28.4614 15.4611C28.4673 15.4611 28.4732 15.4611 28.4791 15.4611C28.485 15.4611 28.4909 15.4611 28.4969 15.4611C28.5028 15.4611 28.5087 15.4611 28.5147 15.4611C28.5206 15.4611 28.5266 15.4611 28.5326 15.4611C28.5386 15.4611 28.5446 15.4611 28.5506 15.4611C28.5566 15.4611 28.5626 15.4611 28.5686 15.4611C28.5746 15.4611 28.5807 15.4611 28.5867 15.4611C28.5928 15.4611 28.5988 15.4611 28.6049 15.4611C28.611 15.4611 28.6171 15.4611 28.6232 15.4611C28.6293 15.4611 28.6354 15.4611 28.6415 15.4611C28.6477 15.4611 28.6538 15.4611 28.6599 15.4611C28.6661 15.4611 28.6723 15.4611 28.6784 15.4611C28.6846 15.4611 28.6908 15.4611 28.697 15.4611C28.7032 15.4611 28.7094 15.4611 28.7156 15.4611C28.7219 15.4611 28.7281 15.4611 28.7344 15.4611C28.7406 15.4611 28.7469 15.4611 28.7531 15.4611C28.7594 15.4611 28.7657 15.4611 28.772 15.4611C28.7783 15.4611 28.7846 15.4611 28.7909 15.4611C28.7973 15.4611 28.8036 15.4611 28.81 15.4611C28.8163 15.4611 28.8227 15.4611 28.829 15.4611C28.8354 15.4611 28.8418 15.4611 28.8482 15.4611C28.8546 15.4611 28.861 15.4611 28.8675 15.4611C28.8739 15.4611 28.8803 15.4611 28.8868 15.4611C28.8932 15.4611 28.8997 15.4611 28.9062 15.4611C28.9126 15.4611 28.9191 15.4611 28.9256 15.4611C28.9321 15.4611 28.9386 15.4611 28.9452 15.4611C28.9517 15.4611 28.9582 15.4611 28.9648 15.4611C28.9713 15.4611 28.9779 15.4611 28.9845 15.4611C28.991 15.4611 28.9976 15.4611 29.0042 15.4611C29.0108 15.4611 29.0174 15.4611 29.0241 15.4611C29.0307 15.4611 29.0373 15.4611 29.044 15.4611C29.0506 15.4611 29.0573 15.4611 29.064 15.4611C29.0707 15.4611 29.0774 15.4611 29.0841 15.4611C29.0908 15.4611 29.0975 15.4611 29.1042 15.4611C29.1109 15.4611 29.1177 15.4611 29.1244 15.4611C29.1312 15.4611 29.138 15.4611 29.1447 15.4611C29.1515 15.4611 29.1583 15.4611 29.1651 15.4611C29.1719 15.4611 29.1787 15.4611 29.1856 15.4611C29.1924 15.4611 29.1992 15.4611 29.2061 15.4611C29.213 15.4611 29.2198 15.4611 29.2267 15.4611C29.2336 15.4611 29.2405 15.4611 29.2474 15.4611C29.2543 15.4611 29.2612 15.4611 29.2682 15.4611C29.2751 15.4611 29.282 15.4611 29.289 15.4611C29.2959 15.4611 29.3029 15.4611 29.3099 15.4611C29.3169 15.4611 29.3239 15.4611 29.3309 15.4611C29.3379 15.4611 29.3449 15.4611 29.352 15.4611C29.359 15.4611 29.3661 15.4611 29.3731 15.4611C29.3802 15.4611 29.3873 15.4611 29.3943 15.4611C29.4014 15.4611 29.4085 15.4611 29.4156 15.4611C29.4228 15.4611 29.4299 15.4611 29.437 15.4611C29.4442 15.4611 29.4513 15.4611 29.4585 15.4611C29.4657 15.4611 29.4728 15.4611 29.48 15.4611C29.4872 15.4611 29.4944 15.4611 29.5016 15.4611C29.5089 15.4611 29.5161 15.4611 29.5233 15.4611C29.5306 15.4611 29.5378 15.4611 29.5451 15.4611C29.5524 15.4611 29.5597 15.4611 29.567 15.4611C29.5743 15.4611 29.5816 15.4611 29.5889 15.4611C29.5962 15.4611 29.6035 15.4611 29.6109 15.4611C29.6182 15.4611 29.6256 15.4611 29.633 15.4611C29.6404 15.4611 29.6477 15.4611 29.6551 15.4611C29.6625 15.4611 29.67 15.4611 29.6774 15.4611C29.6848 15.4611 29.6923 15.4611 29.6997 15.4611C29.7072 15.4611 29.7146 15.4611 29.7221 15.4611C29.7296 15.4611 29.7371 15.4611 29.7446 15.4611C29.7521 15.4611 29.7596 15.4611 29.7671 15.4611C29.7747 15.4611 29.7822 15.4611 29.7898 15.4611C29.7973 15.4611 29.8049 15.4611 29.8125 15.4611C29.8201 15.4611 29.8277 15.4611 29.8353 15.4611C29.8429 15.4611 29.8505 15.4611 29.8582 15.4611C29.8658 15.4611 29.8735 15.4611 29.8811 15.4611C29.8888 15.4611 29.8965 15.4611 29.9042 15.4611C29.9119 15.4611 29.9196 15.4611 29.9273 15.4611C29.935 15.4611 29.9427 15.4611 29.9505 15.4611C29.9582 15.4611 29.966 15.4611 29.9738 15.4611C29.9815 15.4611 29.9893 15.4611 29.9971 15.4611C30.0049 15.4611 30.0127 15.4611 30.0205 15.4611C30.0284 15.4611 30.0362 15.4611 30.0441 15.4611C30.0519 15.4611 30.0598 15.4611 30.0677 15.4611C30.0755 15.4611 30.0834 15.4611 30.0913 15.4611C30.0992 15.4611 30.1072 15.4611 30.1151 15.4611C30.123 15.4611 30.131 15.4611 30.1389 15.4611C30.1469 15.4611 30.1549 15.4611 30.1629 15.4611C30.1708 15.4611 30.1788 15.4611 30.1869 15.4611C30.1949 15.4611 30.2029 15.4611 30.2109 15.4611C30.219 15.4611 30.227 15.4611 30.2351 15.4611C30.2432 15.4611 30.2513 15.4611 30.2593 15.4611C30.2674 15.4611 30.2755 15.4611 30.2837 15.4611C30.2918 15.4611 30.2999 15.4611 30.3081 15.4611C30.3162 15.4611 30.3244 15.4611 30.3326 15.4611C30.3407 15.4611 30.3489 15.4611 30.3571 15.4611C30.3653 15.4611 30.3736 15.4611 30.3818 15.4611C30.39 15.4611 30.3983 15.4611 30.4065 15.4611C30.4148 15.4611 30.423 15.4611 30.4313 15.4611C30.4396 15.4611 30.4479 15.4611 30.4562 15.4611C30.4645 15.4611 30.4729 15.4611 30.4812 15.4611C30.4895 15.4611 30.4979 15.4611 30.5063 15.4611C30.5146 15.4611 30.523 15.4611 30.5314 15.4611C30.5398 15.4611 30.5482 15.4611 30.5566 15.4611C30.5651 15.4611 30.5735 15.4611 30.5819 15.4611C30.5904 15.4611 30.5989 15.4611 30.6073 15.4611C30.6158 15.4611 30.6243 15.4611 30.6328 15.4611C30.6413 15.4611 30.6498 15.4611 30.6584 15.4611C30.6669 15.4611 30.6754 15.4611 30.684 15.4611C30.6925 15.4611 30.7011 15.4611 30.7097 15.4611C30.7183 15.4611 30.7269 15.4611 30.7355 15.4611C30.7441 15.4611 30.7528 15.4611 30.7614 15.4611C30.77 15.4611 30.7787 15.4611 30.7874 15.4611C30.796 15.4611 30.8047 15.4611 30.8134 15.4611C30.8221 15.4611 30.8308 15.4611 30.8396 15.4611C30.8483 15.4611 30.857 15.4611 30.8658 15.4611C30.8745 15.4611 30.8833 15.4611 30.8921 15.4611C30.9009 15.4611 30.9097 15.4611 30.9185 15.4611C30.9273 15.4611 30.9361 15.4611 30.9449 15.4611C30.9538 15.4611 30.9626 15.4611 30.9715 15.4611C30.9803 15.4611 30.9892 15.4611 30.9981 15.4611C31.007 15.4611 31.0159 15.4611 31.0248 15.4611C31.0338 15.4611 31.0427 15.4611 31.0516 15.4611C31.0606 15.4611 31.0696 15.4611 31.0785 15.4611C31.0875 15.4611 31.0965 15.4611 31.1055 15.4611C31.1145 15.4611 31.1235 15.4611 31.1326 15.4611C31.1416 15.4611 31.1506 15.4611 31.1597 15.4611C31.1688 15.4611 31.1778 15.4611 31.1869 15.4611C31.196 15.4611 31.2051 15.4611 31.2142 15.4611C31.2234 15.4611 31.2325 15.4611 31.2416 15.4611C31.2508 15.4611 31.2599 15.4611 31.2691 15.4611C31.2783 15.4611 31.2875 15.4611 31.2967 15.4611C31.3059 15.4611 31.3151 15.4611 31.3243 15.4611C31.3336 15.4611 31.3428 15.4611 31.3521 15.4611C31.3613 15.4611 31.3706 15.4611 31.3799 15.4611C31.3892 15.4611 31.3985 15.4611 31.4078 15.4611C31.4171 15.4611 31.4264 15.4611 31.4358 15.4611C31.4451 15.4611 31.4545 15.4611 31.4639 15.4611C31.4732 15.4611 31.4826 15.4611 31.492 15.4611C31.5014 15.4611 31.5108 15.4611 31.5203 15.4611C31.5297 15.4611 31.5391 15.4611 31.5486 15.4611C31.5581 15.4611 31.5675 15.4611 31.577 15.4611C31.5865 15.4611 31.596 15.4611 31.6055 15.4611C31.615 15.4611 31.6246 15.4611 31.6341 15.4611C31.6437 15.4611 31.6532 15.4611 31.6628 15.4611C31.6724 15.4611 31.682 15.4611 31.6916 15.4611C31.7012 15.4611 31.7108 15.4611 31.7204 15.4611C31.73 15.4611 31.7397 15.4611 31.7493 15.4611C31.759 15.4611 31.7687 15.4611 31.7784 15.4611C31.7881 15.4611 31.7978 15.4611 31.8075 15.4611C31.8172 15.4611 31.8269 15.4611 31.8367 15.4611C31.8464 15.4611 31.8562 15.4611 31.866 15.4611C31.8757 15.4611 31.8855 15.4611 31.8953 15.4611C31.9051 15.4611 31.9149 15.4611 31.9248 15.4611C31.9346 15.4611 31.9445 15.4611 31.9543 15.4611C31.9642 15.4611 31.9741 15.4611 31.984 15.4611C31.9938 15.4611 32.0037 15.4611 32.0137 15.4611C32.0236 15.4611 32.0335 15.4611 32.0435 15.4611C32.0534 15.4611 32.0634 15.4611 32.0734 15.4611C32.0833 15.4611 32.0933 15.4611 32.1033 15.4611C32.1134 15.4611 32.1234 15.4611 32.1334 15.4611C32.1434 15.4611 32.1535 15.4611 32.1636 15.4611C32.1736 15.4611 32.1837 15.4611 32.1938 15.4611C32.2039 15.4611 32.214 15.4611 32.2241 15.4611C32.2343 15.4611 32.2444 15.4611 32.2546 15.4611C32.2647 15.4611 32.2749 15.4611 32.2851 15.4611C32.2952 15.4611 32.3054 15.4611 32.3157 15.4611C32.3259 15.4611 32.3361 15.4611 32.3463 15.4611C32.3566 15.4611 32.3668 15.4611 32.3771 15.4611C32.3874 15.4611 32.3977 15.4611 32.408 15.4611C32.4183 15.4611 32.4286 15.4611 32.4389 15.4611C32.4492 15.4611 32.4596 15.4611 32.4699 15.4611C32.4803 15.4611 32.4907 15.4611 32.5011 15.4611C32.5115 15.4611 32.5219 15.4611 32.5323 15.4611C32.5427 15.4611 32.5531 15.4611 32.5636 15.4611C32.574 15.4611 32.5845 15.4611 32.595 15.4611C32.6055 15.4611 32.616 15.4611 32.6265 15.4611C32.637 15.4611 32.6475 15.4611 32.658 15.4611C32.6686 15.4611 32.6791 15.4611 32.6897 15.4611C32.7003 15.4611 32.7108 15.4611 32.7214 15.4611C32.732 15.4611 32.7426 15.4611 32.7533 15.4611C32.7639 15.4611 32.7745 15.4611 32.7852 15.4611C32.7959 15.4611 32.8065 15.4611 32.8172 15.4611C32.8279 15.4611 32.8386 15.4611 32.8493 15.4611C32.86 15.4611 32.8708 15.4611 32.8815 15.4611C32.8923 15.4611 32.903 15.4611 32.9138 15.4611C32.9246 15.4611 32.9354 15.4611 32.9462 15.4611C32.957 15.4611 32.9678 15.4611 32.9786 15.4611C32.9895 15.4611 33.0003 15.4611 33.0112 15.4611C33.0221 15.4611 33.033 15.4611 33.0438 15.4611C33.0547 15.4611 33.0657 15.4611 33.0766 15.4611C33.0875 15.4611 33.0985 15.4611 33.1094 15.4611C33.1204 15.4611 33.1313 15.4611 33.1423 15.4611C33.1533 15.4611 33.1643 15.4611 33.1753 15.4611C33.1864 15.4611 33.1974 15.4611 33.2084 15.4611C33.2195 15.4611 33.2305 15.4611 33.2416 15.4611C33.2527 15.4611 33.2638 15.4611 33.2749 15.4611C33.286 15.4611 33.2971 15.4611 33.3083 15.4611C33.3194 15.4611 33.3306 15.4611 33.3417 15.4611C33.3529 15.4611 33.3641 15.4611 33.3753 15.4611C33.3865 15.4611 33.3977 15.4611 33.4089 15.4611C33.4202 15.4611 33.4314 15.4611 33.4427 15.4611C33.4539 15.4611 33.4652 15.4611 33.4765 15.4611C33.4878 15.4611 33.4991 15.4611 33.5104 15.4611C33.5217 15.4611 33.5331 15.4611 33.5444 15.4611C33.5558 15.4611 33.5672 15.4611 33.5785 15.4611C33.5899 15.4611 33.6013 15.4611 33.6127 15.4611C33.6241 15.4611 33.6356 15.4611 33.647 15.4611C33.6585 15.4611 33.6699 15.4611 33.6814 15.4611C33.6929 15.4611 33.7044 15.4611 33.7159 15.4611C33.7274 15.4611 33.7389 15.4611 33.7504 15.4611C33.762 15.4611 33.7735 15.4611 33.7851 15.4611C33.7967 15.4611 33.8082 15.4611 33.8198 15.4611C33.8314 15.4611 33.8431 15.4611 33.8547 15.4611C33.8663 15.4611 33.878 15.4611 33.8896 15.4611C33.9013 15.4611 33.9129 15.4611 33.9246 15.4611C33.9363 15.4611 33.948 15.4611 33.9598 15.4611C33.9715 15.4611 33.9832 15.4611 33.995 15.4611C34.0067 15.4611 34.0185 15.4611 34.0303 15.4611C34.0421 15.4611 34.0539 15.4611 34.0657 15.4611C34.0775 15.4611 34.0893 15.4611 34.1012 15.4611V13.4611V11.4611C34.0893 11.4611 34.0775 11.4611 34.0657 11.4611C34.0539 11.4611 34.0421 11.4611 34.0303 11.4611C34.0185 11.4611 34.0067 11.4611 33.995 11.4611C33.9832 11.4611 33.9715 11.4611 33.9598 11.4611C33.948 11.4611 33.9363 11.4611 33.9246 11.4611C33.9129 11.4611 33.9013 11.4611 33.8896 11.4611C33.878 11.4611 33.8663 11.4611 33.8547 11.4611C33.8431 11.4611 33.8314 11.4611 33.8198 11.4611C33.8082 11.4611 33.7967 11.4611 33.7851 11.4611C33.7735 11.4611 33.762 11.4611 33.7504 11.4611C33.7389 11.4611 33.7274 11.4611 33.7159 11.4611C33.7044 11.4611 33.6929 11.4611 33.6814 11.4611C33.6699 11.4611 33.6585 11.4611 33.647 11.4611C33.6356 11.4611 33.6241 11.4611 33.6127 11.4611C33.6013 11.4611 33.5899 11.4611 33.5785 11.4611C33.5672 11.4611 33.5558 11.4611 33.5444 11.4611C33.5331 11.4611 33.5217 11.4611 33.5104 11.4611C33.4991 11.4611 33.4878 11.4611 33.4765 11.4611C33.4652 11.4611 33.4539 11.4611 33.4427 11.4611C33.4314 11.4611 33.4202 11.4611 33.4089 11.4611C33.3977 11.4611 33.3865 11.4611 33.3753 11.4611C33.3641 11.4611 33.3529 11.4611 33.3417 11.4611C33.3306 11.4611 33.3194 11.4611 33.3083 11.4611C33.2971 11.4611 33.286 11.4611 33.2749 11.4611C33.2638 11.4611 33.2527 11.4611 33.2416 11.4611C33.2305 11.4611 33.2195 11.4611 33.2084 11.4611C33.1974 11.4611 33.1864 11.4611 33.1753 11.4611C33.1643 11.4611 33.1533 11.4611 33.1423 11.4611C33.1313 11.4611 33.1204 11.4611 33.1094 11.4611C33.0985 11.4611 33.0875 11.4611 33.0766 11.4611C33.0657 11.4611 33.0547 11.4611 33.0438 11.4611C33.033 11.4611 33.0221 11.4611 33.0112 11.4611C33.0003 11.4611 32.9895 11.4611 32.9786 11.4611C32.9678 11.4611 32.957 11.4611 32.9462 11.4611C32.9354 11.4611 32.9246 11.4611 32.9138 11.4611C32.903 11.4611 32.8923 11.4611 32.8815 11.4611C32.8708 11.4611 32.86 11.4611 32.8493 11.4611C32.8386 11.4611 32.8279 11.4611 32.8172 11.4611C32.8065 11.4611 32.7959 11.4611 32.7852 11.4611C32.7745 11.4611 32.7639 11.4611 32.7533 11.4611C32.7426 11.4611 32.732 11.4611 32.7214 11.4611C32.7108 11.4611 32.7003 11.4611 32.6897 11.4611C32.6791 11.4611 32.6686 11.4611 32.658 11.4611C32.6475 11.4611 32.637 11.4611 32.6265 11.4611C32.616 11.4611 32.6055 11.4611 32.595 11.4611C32.5845 11.4611 32.574 11.4611 32.5636 11.4611C32.5531 11.4611 32.5427 11.4611 32.5323 11.4611C32.5219 11.4611 32.5115 11.4611 32.5011 11.4611C32.4907 11.4611 32.4803 11.4611 32.4699 11.4611C32.4596 11.4611 32.4492 11.4611 32.4389 11.4611C32.4286 11.4611 32.4183 11.4611 32.408 11.4611C32.3977 11.4611 32.3874 11.4611 32.3771 11.4611C32.3668 11.4611 32.3566 11.4611 32.3463 11.4611C32.3361 11.4611 32.3259 11.4611 32.3157 11.4611C32.3054 11.4611 32.2952 11.4611 32.2851 11.4611C32.2749 11.4611 32.2647 11.4611 32.2546 11.4611C32.2444 11.4611 32.2343 11.4611 32.2241 11.4611C32.214 11.4611 32.2039 11.4611 32.1938 11.4611C32.1837 11.4611 32.1736 11.4611 32.1636 11.4611C32.1535 11.4611 32.1434 11.4611 32.1334 11.4611C32.1234 11.4611 32.1134 11.4611 32.1033 11.4611C32.0933 11.4611 32.0833 11.4611 32.0734 11.4611C32.0634 11.4611 32.0534 11.4611 32.0435 11.4611C32.0335 11.4611 32.0236 11.4611 32.0137 11.4611C32.0037 11.4611 31.9938 11.4611 31.984 11.4611C31.9741 11.4611 31.9642 11.4611 31.9543 11.4611C31.9445 11.4611 31.9346 11.4611 31.9248 11.4611C31.9149 11.4611 31.9051 11.4611 31.8953 11.4611C31.8855 11.4611 31.8757 11.4611 31.866 11.4611C31.8562 11.4611 31.8464 11.4611 31.8367 11.4611C31.8269 11.4611 31.8172 11.4611 31.8075 11.4611C31.7978 11.4611 31.7881 11.4611 31.7784 11.4611C31.7687 11.4611 31.759 11.4611 31.7493 11.4611C31.7397 11.4611 31.73 11.4611 31.7204 11.4611C31.7108 11.4611 31.7012 11.4611 31.6916 11.4611C31.682 11.4611 31.6724 11.4611 31.6628 11.4611C31.6532 11.4611 31.6437 11.4611 31.6341 11.4611C31.6246 11.4611 31.615 11.4611 31.6055 11.4611C31.596 11.4611 31.5865 11.4611 31.577 11.4611C31.5675 11.4611 31.5581 11.4611 31.5486 11.4611C31.5391 11.4611 31.5297 11.4611 31.5203 11.4611C31.5108 11.4611 31.5014 11.4611 31.492 11.4611C31.4826 11.4611 31.4732 11.4611 31.4639 11.4611C31.4545 11.4611 31.4451 11.4611 31.4358 11.4611C31.4264 11.4611 31.4171 11.4611 31.4078 11.4611C31.3985 11.4611 31.3892 11.4611 31.3799 11.4611C31.3706 11.4611 31.3613 11.4611 31.3521 11.4611C31.3428 11.4611 31.3336 11.4611 31.3243 11.4611C31.3151 11.4611 31.3059 11.4611 31.2967 11.4611C31.2875 11.4611 31.2783 11.4611 31.2691 11.4611C31.2599 11.4611 31.2508 11.4611 31.2416 11.4611C31.2325 11.4611 31.2234 11.4611 31.2142 11.4611C31.2051 11.4611 31.196 11.4611 31.1869 11.4611C31.1778 11.4611 31.1688 11.4611 31.1597 11.4611C31.1506 11.4611 31.1416 11.4611 31.1326 11.4611C31.1235 11.4611 31.1145 11.4611 31.1055 11.4611C31.0965 11.4611 31.0875 11.4611 31.0785 11.4611C31.0696 11.4611 31.0606 11.4611 31.0516 11.4611C31.0427 11.4611 31.0338 11.4611 31.0248 11.4611C31.0159 11.4611 31.007 11.4611 30.9981 11.4611C30.9892 11.4611 30.9803 11.4611 30.9715 11.4611C30.9626 11.4611 30.9538 11.4611 30.9449 11.4611C30.9361 11.4611 30.9273 11.4611 30.9185 11.4611C30.9097 11.4611 30.9009 11.4611 30.8921 11.4611C30.8833 11.4611 30.8745 11.4611 30.8658 11.4611C30.857 11.4611 30.8483 11.4611 30.8396 11.4611C30.8308 11.4611 30.8221 11.4611 30.8134 11.4611C30.8047 11.4611 30.796 11.4611 30.7874 11.4611C30.7787 11.4611 30.77 11.4611 30.7614 11.4611C30.7528 11.4611 30.7441 11.4611 30.7355 11.4611C30.7269 11.4611 30.7183 11.4611 30.7097 11.4611C30.7011 11.4611 30.6925 11.4611 30.684 11.4611C30.6754 11.4611 30.6669 11.4611 30.6584 11.4611C30.6498 11.4611 30.6413 11.4611 30.6328 11.4611C30.6243 11.4611 30.6158 11.4611 30.6073 11.4611C30.5989 11.4611 30.5904 11.4611 30.5819 11.4611C30.5735 11.4611 30.5651 11.4611 30.5566 11.4611C30.5482 11.4611 30.5398 11.4611 30.5314 11.4611C30.523 11.4611 30.5146 11.4611 30.5063 11.4611C30.4979 11.4611 30.4895 11.4611 30.4812 11.4611C30.4729 11.4611 30.4645 11.4611 30.4562 11.4611C30.4479 11.4611 30.4396 11.4611 30.4313 11.4611C30.423 11.4611 30.4148 11.4611 30.4065 11.4611C30.3983 11.4611 30.39 11.4611 30.3818 11.4611C30.3736 11.4611 30.3653 11.4611 30.3571 11.4611C30.3489 11.4611 30.3407 11.4611 30.3326 11.4611C30.3244 11.4611 30.3162 11.4611 30.3081 11.4611C30.2999 11.4611 30.2918 11.4611 30.2837 11.4611C30.2755 11.4611 30.2674 11.4611 30.2593 11.4611C30.2513 11.4611 30.2432 11.4611 30.2351 11.4611C30.227 11.4611 30.219 11.4611 30.2109 11.4611C30.2029 11.4611 30.1949 11.4611 30.1869 11.4611C30.1788 11.4611 30.1708 11.4611 30.1629 11.4611C30.1549 11.4611 30.1469 11.4611 30.1389 11.4611C30.131 11.4611 30.123 11.4611 30.1151 11.4611C30.1072 11.4611 30.0992 11.4611 30.0913 11.4611C30.0834 11.4611 30.0755 11.4611 30.0677 11.4611C30.0598 11.4611 30.0519 11.4611 30.0441 11.4611C30.0362 11.4611 30.0284 11.4611 30.0205 11.4611C30.0127 11.4611 30.0049 11.4611 29.9971 11.4611C29.9893 11.4611 29.9815 11.4611 29.9738 11.4611C29.966 11.4611 29.9582 11.4611 29.9505 11.4611C29.9427 11.4611 29.935 11.4611 29.9273 11.4611C29.9196 11.4611 29.9119 11.4611 29.9042 11.4611C29.8965 11.4611 29.8888 11.4611 29.8811 11.4611C29.8735 11.4611 29.8658 11.4611 29.8582 11.4611C29.8505 11.4611 29.8429 11.4611 29.8353 11.4611C29.8277 11.4611 29.8201 11.4611 29.8125 11.4611C29.8049 11.4611 29.7973 11.4611 29.7898 11.4611C29.7822 11.4611 29.7747 11.4611 29.7671 11.4611C29.7596 11.4611 29.7521 11.4611 29.7446 11.4611C29.7371 11.4611 29.7296 11.4611 29.7221 11.4611C29.7146 11.4611 29.7072 11.4611 29.6997 11.4611C29.6923 11.4611 29.6848 11.4611 29.6774 11.4611C29.67 11.4611 29.6625 11.4611 29.6551 11.4611C29.6477 11.4611 29.6404 11.4611 29.633 11.4611C29.6256 11.4611 29.6182 11.4611 29.6109 11.4611C29.6035 11.4611 29.5962 11.4611 29.5889 11.4611C29.5816 11.4611 29.5743 11.4611 29.567 11.4611C29.5597 11.4611 29.5524 11.4611 29.5451 11.4611C29.5378 11.4611 29.5306 11.4611 29.5233 11.4611C29.5161 11.4611 29.5089 11.4611 29.5016 11.4611C29.4944 11.4611 29.4872 11.4611 29.48 11.4611C29.4728 11.4611 29.4657 11.4611 29.4585 11.4611C29.4513 11.4611 29.4442 11.4611 29.437 11.4611C29.4299 11.4611 29.4228 11.4611 29.4156 11.4611C29.4085 11.4611 29.4014 11.4611 29.3943 11.4611C29.3873 11.4611 29.3802 11.4611 29.3731 11.4611C29.3661 11.4611 29.359 11.4611 29.352 11.4611C29.3449 11.4611 29.3379 11.4611 29.3309 11.4611C29.3239 11.4611 29.3169 11.4611 29.3099 11.4611C29.3029 11.4611 29.2959 11.4611 29.289 11.4611C29.282 11.4611 29.2751 11.4611 29.2682 11.4611C29.2612 11.4611 29.2543 11.4611 29.2474 11.4611C29.2405 11.4611 29.2336 11.4611 29.2267 11.4611C29.2198 11.4611 29.213 11.4611 29.2061 11.4611C29.1992 11.4611 29.1924 11.4611 29.1856 11.4611C29.1787 11.4611 29.1719 11.4611 29.1651 11.4611C29.1583 11.4611 29.1515 11.4611 29.1447 11.4611C29.138 11.4611 29.1312 11.4611 29.1244 11.4611C29.1177 11.4611 29.1109 11.4611 29.1042 11.4611C29.0975 11.4611 29.0908 11.4611 29.0841 11.4611C29.0774 11.4611 29.0707 11.4611 29.064 11.4611C29.0573 11.4611 29.0506 11.4611 29.044 11.4611C29.0373 11.4611 29.0307 11.4611 29.0241 11.4611C29.0174 11.4611 29.0108 11.4611 29.0042 11.4611C28.9976 11.4611 28.991 11.4611 28.9845 11.4611C28.9779 11.4611 28.9713 11.4611 28.9648 11.4611C28.9582 11.4611 28.9517 11.4611 28.9452 11.4611C28.9386 11.4611 28.9321 11.4611 28.9256 11.4611C28.9191 11.4611 28.9126 11.4611 28.9062 11.4611C28.8997 11.4611 28.8932 11.4611 28.8868 11.4611C28.8803 11.4611 28.8739 11.4611 28.8675 11.4611C28.861 11.4611 28.8546 11.4611 28.8482 11.4611C28.8418 11.4611 28.8354 11.4611 28.829 11.4611C28.8227 11.4611 28.8163 11.4611 28.81 11.4611C28.8036 11.4611 28.7973 11.4611 28.7909 11.4611C28.7846 11.4611 28.7783 11.4611 28.772 11.4611C28.7657 11.4611 28.7594 11.4611 28.7531 11.4611C28.7469 11.4611 28.7406 11.4611 28.7344 11.4611C28.7281 11.4611 28.7219 11.4611 28.7156 11.4611C28.7094 11.4611 28.7032 11.4611 28.697 11.4611C28.6908 11.4611 28.6846 11.4611 28.6784 11.4611C28.6723 11.4611 28.6661 11.4611 28.6599 11.4611C28.6538 11.4611 28.6477 11.4611 28.6415 11.4611C28.6354 11.4611 28.6293 11.4611 28.6232 11.4611C28.6171 11.4611 28.611 11.4611 28.6049 11.4611C28.5988 11.4611 28.5928 11.4611 28.5867 11.4611C28.5807 11.4611 28.5746 11.4611 28.5686 11.4611C28.5626 11.4611 28.5566 11.4611 28.5506 11.4611C28.5446 11.4611 28.5386 11.4611 28.5326 11.4611C28.5266 11.4611 28.5206 11.4611 28.5147 11.4611C28.5087 11.4611 28.5028 11.4611 28.4969 11.4611C28.4909 11.4611 28.485 11.4611 28.4791 11.4611C28.4732 11.4611 28.4673 11.4611 28.4614 11.4611C28.4555 11.4611 28.4497 11.4611 28.4438 11.4611C28.438 11.4611 28.4321 11.4611 28.4263 11.4611C28.4205 11.4611 28.4146 11.4611 28.4088 11.4611C28.403 11.4611 28.3972 11.4611 28.3914 11.4611C28.3857 11.4611 28.3799 11.4611 28.3741 11.4611C28.3684 11.4611 28.3626 11.4611 28.3569 11.4611C28.3512 11.4611 28.3454 11.4611 28.3397 11.4611C28.334 11.4611 28.3283 11.4611 28.3226 11.4611C28.3169 11.4611 28.3113 11.4611 28.3056 11.4611C28.2999 11.4611 28.2943 11.4611 28.2886 11.4611C28.283 11.4611 28.2774 11.4611 28.2718 11.4611C28.2662 11.4611 28.2606 11.4611 28.255 11.4611C28.2494 11.4611 28.2438 11.4611 28.2382 11.4611C28.2327 11.4611 28.2271 11.4611 28.2216 11.4611C28.216 11.4611 28.2105 11.4611 28.205 11.4611C28.1995 11.4611 28.1939 11.4611 28.1885 11.4611C28.183 11.4611 28.1775 11.4611 28.172 11.4611C28.1665 11.4611 28.1611 11.4611 28.1556 11.4611C28.1502 11.4611 28.1447 11.4611 28.1393 11.4611C28.1339 11.4611 28.1285 11.4611 28.1231 11.4611C28.1177 11.4611 28.1123 11.4611 28.1069 11.4611C28.1016 11.4611 28.0962 11.4611 28.0908 11.4611C28.0855 11.4611 28.0802 11.4611 28.0748 11.4611C28.0695 11.4611 28.0642 11.4611 28.0589 11.4611C28.0536 11.4611 28.0483 11.4611 28.043 11.4611C28.0377 11.4611 28.0325 11.4611 28.0272 11.4611C28.0219 11.4611 28.0167 11.4611 28.0115 11.4611C28.0062 11.4611 28.001 11.4611 27.9958 11.4611C27.9906 11.4611 27.9854 11.4611 27.9802 11.4611C27.975 11.4611 27.9698 11.4611 27.9647 11.4611C27.9595 11.4611 27.9544 11.4611 27.9492 11.4611C27.9441 11.4611 27.939 11.4611 27.9338 11.4611C27.9287 11.4611 27.9236 11.4611 27.9185 11.4611C27.9134 11.4611 27.9084 11.4611 27.9033 11.4611C27.8982 11.4611 27.8932 11.4611 27.8881 11.4611C27.8831 11.4611 27.878 11.4611 27.873 11.4611C27.868 11.4611 27.863 11.4611 27.858 11.4611C27.853 11.4611 27.848 11.4611 27.843 11.4611C27.838 11.4611 27.8331 11.4611 27.8281 11.4611C27.8232 11.4611 27.8182 11.4611 27.8133 11.4611C27.8084 11.4611 27.8035 11.4611 27.7986 11.4611C27.7936 11.4611 27.7888 11.4611 27.7839 11.4611C27.779 11.4611 27.7741 11.4611 27.7693 11.4611C27.7644 11.4611 27.7595 11.4611 27.7547 11.4611C27.7499 11.4611 27.745 11.4611 27.7402 11.4611C27.7354 11.4611 27.7306 11.4611 27.7258 11.4611C27.721 11.4611 27.7163 11.4611 27.7115 11.4611C27.7067 11.4611 27.702 11.4611 27.6972 11.4611C27.6925 11.4611 27.6877 11.4611 27.683 11.4611C27.6783 11.4611 27.6736 11.4611 27.6689 11.4611C27.6642 11.4611 27.6595 11.4611 27.6548 11.4611C27.6501 11.4611 27.6455 11.4611 27.6408 11.4611C27.6362 11.4611 27.6315 11.4611 27.6269 11.4611C27.6223 11.4611 27.6177 11.4611 27.613 11.4611C27.6084 11.4611 27.6038 11.4611 27.5993 11.4611C27.5947 11.4611 27.5901 11.4611 27.5855 11.4611C27.581 11.4611 27.5764 11.4611 27.5719 11.4611C27.5673 11.4611 27.5628 11.4611 27.5583 11.4611C27.5538 11.4611 27.5493 11.4611 27.5448 11.4611C27.5403 11.4611 27.5358 11.4611 27.5313 11.4611C27.5268 11.4611 27.5224 11.4611 27.5179 11.4611C27.5135 11.4611 27.509 11.4611 27.5046 11.4611C27.5002 11.4611 27.4958 11.4611 27.4914 11.4611C27.487 11.4611 27.4826 11.4611 27.4782 11.4611C27.4738 11.4611 27.4694 11.4611 27.4651 11.4611C27.4607 11.4611 27.4564 11.4611 27.452 11.4611C27.4477 11.4611 27.4434 11.4611 27.4391 11.4611C27.4347 11.4611 27.4304 11.4611 27.4261 11.4611C27.4219 11.4611 27.4176 11.4611 27.4133 11.4611C27.409 11.4611 27.4048 11.4611 27.4005 11.4611C27.3963 11.4611 27.392 11.4611 27.3878 11.4611C27.3836 11.4611 27.3794 11.4611 27.3752 11.4611C27.371 11.4611 27.3668 11.4611 27.3626 11.4611C27.3584 11.4611 27.3542 11.4611 27.3501 11.4611C27.3459 11.4611 27.3418 11.4611 27.3376 11.4611C27.3335 11.4611 27.3294 11.4611 27.3252 11.4611C27.3211 11.4611 27.317 11.4611 27.3129 11.4611C27.3088 11.4611 27.3048 11.4611 27.3007 11.4611C27.2966 11.4611 27.2926 11.4611 27.2885 11.4611C27.2845 11.4611 27.2804 11.4611 27.2764 11.4611C27.2724 11.4611 27.2683 11.4611 27.2643 11.4611C27.2603 11.4611 27.2563 11.4611 27.2524 11.4611C27.2484 11.4611 27.2444 11.4611 27.2404 11.4611C27.2365 11.4611 27.2325 11.4611 27.2286 11.4611C27.2246 11.4611 27.2207 11.4611 27.2168 11.4611C27.2129 11.4611 27.209 11.4611 27.2051 11.4611C27.2012 11.4611 27.1973 11.4611 27.1934 11.4611C27.1895 11.4611 27.1857 11.4611 27.1818 11.4611C27.178 11.4611 27.1741 11.4611 27.1703 11.4611C27.1665 11.4611 27.1626 11.4611 27.1588 11.4611C27.155 11.4611 27.1512 11.4611 27.1474 11.4611C27.1437 11.4611 27.1399 11.4611 27.1361 11.4611C27.1323 11.4611 27.1286 11.4611 27.1248 11.4611C27.1211 11.4611 27.1174 11.4611 27.1136 11.4611C27.1099 11.4611 27.1062 11.4611 27.1025 11.4611C27.0988 11.4611 27.0951 11.4611 27.0914 11.4611C27.0877 11.4611 27.0841 11.4611 27.0804 11.4611C27.0768 11.4611 27.0731 11.4611 27.0695 11.4611C27.0658 11.4611 27.0622 11.4611 27.0586 11.4611C27.055 11.4611 27.0514 11.4611 27.0478 11.4611C27.0442 11.4611 27.0406 11.4611 27.037 11.4611C27.0334 11.4611 27.0299 11.4611 27.0263 11.4611C27.0228 11.4611 27.0192 11.4611 27.0157 11.4611C27.0122 11.4611 27.0086 11.4611 27.0051 11.4611C27.0016 11.4611 26.9981 11.4611 26.9946 11.4611C26.9911 11.4611 26.9877 11.4611 26.9842 11.4611C26.9807 11.4611 26.9773 11.4611 26.9738 11.4611C26.9704 11.4611 26.9669 11.4611 26.9635 11.4611C26.9601 11.4611 26.9567 11.4611 26.9533 11.4611C26.9499 11.4611 26.9465 11.4611 26.9431 11.4611C26.9397 11.4611 26.9363 11.4611 26.933 11.4611C26.9296 11.4611 26.9263 11.4611 26.9229 11.4611C26.9196 11.4611 26.9162 11.4611 26.9129 11.4611C26.9096 11.4611 26.9063 11.4611 26.903 11.4611C26.8997 11.4611 26.8964 11.4611 26.8931 11.4611C26.8898 11.4611 26.8866 11.4611 26.8833 11.4611C26.8801 11.4611 26.8768 11.4611 26.8736 11.4611C26.8703 11.4611 26.8671 11.4611 26.8639 11.4611C26.8607 11.4611 26.8575 11.4611 26.8543 11.4611C26.8511 11.4611 26.8479 11.4611 26.8447 11.4611C26.8415 11.4611 26.8384 11.4611 26.8352 11.4611C26.8321 11.4611 26.8289 11.4611 26.8258 11.4611C26.8227 11.4611 26.8195 11.4611 26.8164 11.4611C26.8133 11.4611 26.8102 11.4611 26.8071 11.4611C26.804 11.4611 26.8009 11.4611 26.7979 11.4611C26.7948 11.4611 26.7917 11.4611 26.7887 11.4611C26.7856 11.4611 26.7826 11.4611 26.7796 11.4611C26.7765 11.4611 26.7735 11.4611 26.7705 11.4611C26.7675 11.4611 26.7645 11.4611 26.7615 11.4611C26.7585 11.4611 26.7555 11.4611 26.7525 11.4611C26.7496 11.4611 26.7466 11.4611 26.7437 11.4611C26.7407 11.4611 26.7378 11.4611 26.7348 11.4611C26.7319 11.4611 26.729 11.4611 26.7261 11.4611C26.7232 11.4611 26.7203 11.4611 26.7174 11.4611C26.7145 11.4611 26.7116 11.4611 26.7088 11.4611C26.7059 11.4611 26.703 11.4611 26.7002 11.4611C26.6973 11.4611 26.6945 11.4611 26.6917 11.4611C26.6888 11.4611 26.686 11.4611 26.6832 11.4611C26.6804 11.4611 26.6776 11.4611 26.6748 11.4611C26.672 11.4611 26.6693 11.4611 26.6665 11.4611C26.6637 11.4611 26.661 11.4611 26.6582 11.4611C26.6555 11.4611 26.6527 11.4611 26.65 11.4611C26.6473 11.4611 26.6446 11.4611 26.6418 11.4611C26.6391 11.4611 26.6364 11.4611 26.6338 11.4611C26.6311 11.4611 26.6284 11.4611 26.6257 11.4611C26.6231 11.4611 26.6204 11.4611 26.6177 11.4611C26.6151 11.4611 26.6125 11.4611 26.6098 11.4611C26.6072 11.4611 26.6046 11.4611 26.602 11.4611C26.5994 11.4611 26.5968 11.4611 26.5942 11.4611C26.5916 11.4611 26.589 11.4611 26.5864 11.4611C26.5839 11.4611 26.5813 11.4611 26.5788 11.4611C26.5762 11.4611 26.5737 11.4611 26.5712 11.4611C26.5686 11.4611 26.5661 11.4611 26.5636 11.4611C26.5611 11.4611 26.5586 11.4611 26.5561 11.4611C26.5536 11.4611 26.5511 11.4611 26.5487 11.4611C26.5462 11.4611 26.5437 11.4611 26.5413 11.4611C26.5388 11.4611 26.5364 11.4611 26.534 11.4611C26.5315 11.4611 26.5291 11.4611 26.5267 11.4611C26.5243 11.4611 26.5219 11.4611 26.5195 11.4611C26.5171 11.4611 26.5147 11.4611 26.5123 11.4611C26.51 11.4611 26.5076 11.4611 26.5052 11.4611C26.5029 11.4611 26.5005 11.4611 26.4982 11.4611C26.4959 11.4611 26.4936 11.4611 26.4912 11.4611C26.4889 11.4611 26.4866 11.4611 26.4843 11.4611C26.482 11.4611 26.4797 11.4611 26.4775 11.4611C26.4752 11.4611 26.4729 11.4611 26.4707 11.4611C26.4684 11.4611 26.4662 11.4611 26.4639 11.4611C26.4617 11.4611 26.4595 11.4611 26.4572 11.4611C26.455 11.4611 26.4528 11.4611 26.4506 11.4611C26.4484 11.4611 26.4462 11.4611 26.4441 11.4611C26.4419 11.4611 26.4397 11.4611 26.4375 11.4611C26.4354 11.4611 26.4332 11.4611 26.4311 11.4611C26.4289 11.4611 26.4268 11.4611 26.4247 11.4611C26.4226 11.4611 26.4205 11.4611 26.4184 11.4611C26.4163 11.4611 26.4142 11.4611 26.4121 11.4611C26.41 11.4611 26.4079 11.4611 26.4058 11.4611C26.4038 11.4611 26.4017 11.4611 26.3997 11.4611C26.3976 11.4611 26.3956 11.4611 26.3936 11.4611C26.3915 11.4611 26.3895 11.4611 26.3875 11.4611C26.3855 11.4611 26.3835 11.4611 26.3815 11.4611C26.3795 11.4611 26.3775 11.4611 26.3756 11.4611C26.3736 11.4611 26.3716 11.4611 26.3697 11.4611C26.3677 11.4611 26.3658 11.4611 26.3639 11.4611C26.3619 11.4611 26.36 11.4611 26.3581 11.4611C26.3562 11.4611 26.3543 11.4611 26.3524 11.4611C26.3505 11.4611 26.3486 11.4611 26.3467 11.4611C26.3448 11.4611 26.343 11.4611 26.3411 11.4611C26.3392 11.4611 26.3374 11.4611 26.3356 11.4611C26.3337 11.4611 26.3319 11.4611 26.3301 11.4611C26.3282 11.4611 26.3264 11.4611 26.3246 11.4611C26.3228 11.4611 26.321 11.4611 26.3192 11.4611C26.3175 11.4611 26.3157 11.4611 26.3139 11.4611C26.3121 11.4611 26.3104 11.4611 26.3086 11.4611C26.3069 11.4611 26.3052 11.4611 26.3034 11.4611C26.3017 11.4611 26.3 11.4611 26.2983 11.4611C26.2966 11.4611 26.2949 11.4611 26.2932 11.4611C26.2915 11.4611 26.2898 11.4611 26.2881 11.4611C26.2864 11.4611 26.2848 11.4611 26.2831 11.4611C26.2815 11.4611 26.2798 11.4611 26.2782 11.4611C26.2765 11.4611 26.2749 11.4611 26.2733 11.4611C26.2717 11.4611 26.2701 11.4611 26.2684 11.4611C26.2668 11.4611 26.2653 11.4611 26.2637 11.4611C26.2621 11.4611 26.2605 11.4611 26.2589 11.4611C26.2574 11.4611 26.2558 11.4611 26.2543 11.4611C26.2527 11.4611 26.2512 11.4611 26.2497 11.4611C26.2481 11.4611 26.2466 11.4611 26.2451 11.4611C26.2436 11.4611 26.2421 11.4611 26.2406 11.4611C26.2391 11.4611 26.2376 11.4611 26.2361 11.4611C26.2347 11.4611 26.2332 11.4611 26.2317 11.4611C26.2303 11.4611 26.2288 11.4611 26.2274 11.4611C26.226 11.4611 26.2245 11.4611 26.2231 11.4611C26.2217 11.4611 26.2203 11.4611 26.2189 11.4611C26.2175 11.4611 26.2161 11.4611 26.2147 11.4611C26.2133 11.4611 26.2119 11.4611 26.2106 11.4611C26.2092 11.4611 26.2078 11.4611 26.2065 11.4611C26.2051 11.4611 26.2038 11.4611 26.2025 11.4611C26.2011 11.4611 26.1998 11.4611 26.1985 11.4611C26.1972 11.4611 26.1959 11.4611 26.1946 11.4611C26.1933 11.4611 26.192 11.4611 26.1907 11.4611C26.1894 11.4611 26.1882 11.4611 26.1869 11.4611C26.1856 11.4611 26.1844 11.4611 26.1831 11.4611C26.1819 11.4611 26.1807 11.4611 26.1794 11.4611C26.1782 11.4611 26.177 11.4611 26.1758 11.4611C26.1746 11.4611 26.1734 11.4611 26.1722 11.4611C26.171 11.4611 26.1698 11.4611 26.1686 11.4611C26.1674 11.4611 26.1663 11.4611 26.1651 11.4611C26.164 11.4611 26.1628 11.4611 26.1617 11.4611C26.1605 11.4611 26.1594 11.4611 26.1583 11.4611C26.1572 11.4611 26.1561 11.4611 26.1549 11.4611C26.1538 11.4611 26.1527 11.4611 26.1517 11.4611C26.1506 11.4611 26.1495 11.4611 26.1484 11.4611C26.1474 11.4611 26.1463 11.4611 26.1452 11.4611C26.1442 11.4611 26.1431 11.4611 26.1421 11.4611C26.1411 11.4611 26.14 11.4611 26.139 11.4611C26.138 11.4611 26.137 11.4611 26.136 11.4611C26.135 11.4611 26.134 11.4611 26.133 11.4611C26.132 11.4611 26.1311 11.4611 26.1301 11.4611C26.1291 11.4611 26.1282 11.4611 26.1272 11.4611C26.1263 11.4611 26.1253 11.4611 26.1244 11.4611C26.1234 11.4611 26.1225 11.4611 26.1216 11.4611C26.1207 11.4611 26.1198 11.4611 26.1189 11.4611C26.118 11.4611 26.1171 11.4611 26.1162 11.4611C26.1153 11.4611 26.1145 11.4611 26.1136 11.4611C26.1127 11.4611 26.1119 11.4611 26.111 11.4611C26.1102 11.4611 26.1093 11.4611 26.1085 11.4611C26.1077 11.4611 26.1068 11.4611 26.106 11.4611C26.1052 11.4611 26.1044 11.4611 26.1036 11.4611C26.1028 11.4611 26.102 11.4611 26.1012 11.4611C26.1005 11.4611 26.0997 11.4611 26.0989 11.4611C26.0981 11.4611 26.0974 11.4611 26.0966 11.4611C26.0959 11.4611 26.0952 11.4611 26.0944 11.4611C26.0937 11.4611 26.093 11.4611 26.0923 11.4611C26.0915 11.4611 26.0908 11.4611 26.0901 11.4611C26.0894 11.4611 26.0887 11.4611 26.0881 11.4611C26.0874 11.4611 26.0867 11.4611 26.086 11.4611C26.0854 11.4611 26.0847 11.4611 26.0841 11.4611C26.0834 11.4611 26.0828 11.4611 26.0821 11.4611C26.0815 11.4611 26.0809 11.4611 26.0803 11.4611C26.0797 11.4611 26.079 11.4611 26.0784 11.4611C26.0778 11.4611 26.0773 11.4611 26.0767 11.4611C26.0761 11.4611 26.0755 11.4611 26.0749 11.4611C26.0744 11.4611 26.0738 11.4611 26.0733 11.4611C26.0727 11.4611 26.0722 11.4611 26.0716 11.4611C26.0711 11.4611 26.0706 11.4611 26.0701 11.4611C26.0695 11.4611 26.069 11.4611 26.0685 11.4611C26.068 11.4611 26.0675 11.4611 26.067 11.4611C26.0666 11.4611 26.0661 11.4611 26.0656 11.4611C26.0651 11.4611 26.0647 11.4611 26.0642 11.4611C26.0638 11.4611 26.0633 11.4611 26.0629 11.4611C26.0625 11.4611 26.062 11.4611 26.0616 11.4611C26.0612 11.4611 26.0608 11.4611 26.0604 11.4611C26.06 11.4611 26.0596 11.4611 26.0592 11.4611C26.0588 11.4611 26.0584 11.4611 26.058 11.4611C26.0577 11.4611 26.0573 11.4611 26.0569 11.4611C26.0566 11.4611 26.0562 11.4611 26.0559 11.4611C26.0555 11.4611 26.0552 11.4611 26.0549 11.4611C26.0546 11.4611 26.0542 11.4611 26.0539 11.4611C26.0536 11.4611 26.0533 11.4611 26.053 11.4611C26.0527 11.4611 26.0524 11.4611 26.0522 11.4611C26.0519 11.4611 26.0516 11.4611 26.0513 11.4611C26.0511 11.4611 26.0508 11.4611 26.0506 11.4611C26.0503 11.4611 26.0501 11.4611 26.0499 11.4611C26.0496 11.4611 26.0494 11.4611 26.0492 11.4611C26.049 11.4611 26.0488 11.4611 26.0486 11.4611C26.0484 11.4611 26.0482 11.4611 26.048 11.4611C26.0478 11.4611 26.0476 11.4611 26.0475 11.4611C26.0473 11.4611 26.0471 11.4611 26.047 11.4611C26.0468 11.4611 26.0467 11.4611 26.0465 11.4611C26.0464 11.4611 26.0463 11.4611 26.0462 11.4611C26.046 11.4611 26.0459 11.4611 26.0458 11.4611C26.0457 11.4611 26.0456 11.4611 26.0455 11.4611C26.0454 11.4611 26.0453 11.4611 26.0453 11.4611C26.0452 11.4611 26.0451 11.4611 26.0451 11.4611C26.045 11.4611 26.0449 11.4611 26.0449 11.4611C26.0448 11.4611 26.0448 11.4611 26.0448 11.4611C26.0447 11.4611 26.0447 11.4611 26.0447 11.4611C26.0447 11.4611 26.0447 11.4611 26.0447 13.4611ZM34.1012 13.4611V15.4611C34.2482 15.4611 34.3355 15.4918 34.4671 15.6381C34.6483 15.8395 34.883 16.2558 35.0609 16.9869C35.4165 18.4486 35.4031 20.583 34.9698 22.856C34.539 25.1156 33.7354 27.2883 32.704 28.8398C31.6414 30.4383 30.6152 31 29.7875 31V33V35C32.5807 35 34.6623 33.1193 36.0351 31.0542C37.4391 28.9423 38.3985 26.2303 38.899 23.6051C39.3969 20.9934 39.4832 18.243 38.9475 16.0413C38.6797 14.9406 38.2211 13.8304 37.4412 12.9632C36.6117 12.041 35.4703 11.4611 34.1012 11.4611V13.4611ZM29.7875 33V31C29.7734 31 29.7592 31 29.7451 31C29.7309 31 29.7168 31 29.7026 31C29.6884 31 29.6742 31 29.66 31C29.6459 31 29.6317 31 29.6175 31C29.6033 31 29.5891 31 29.5748 31C29.5606 31 29.5464 31 29.5322 31C29.5179 31 29.5037 31 29.4895 31C29.4752 31 29.461 31 29.4467 31C29.4325 31 29.4182 31 29.4039 31C29.3897 31 29.3754 31 29.3611 31C29.3468 31 29.3326 31 29.3183 31C29.304 31 29.2897 31 29.2754 31C29.2611 31 29.2467 31 29.2324 31C29.2181 31 29.2038 31 29.1894 31C29.1751 31 29.1608 31 29.1464 31C29.1321 31 29.1177 31 29.1034 31C29.089 31 29.0747 31 29.0603 31C29.0459 31 29.0316 31 29.0172 31C29.0028 31 28.9884 31 28.974 31C28.9596 31 28.9452 31 28.9308 31C28.9164 31 28.902 31 28.8876 31C28.8732 31 28.8588 31 28.8444 31C28.8299 31 28.8155 31 28.8011 31C28.7867 31 28.7722 31 28.7578 31C28.7433 31 28.7289 31 28.7144 31C28.7 31 28.6855 31 28.671 31C28.6566 31 28.6421 31 28.6276 31C28.6131 31 28.5987 31 28.5842 31C28.5697 31 28.5552 31 28.5407 31C28.5262 31 28.5117 31 28.4972 31C28.4827 31 28.4682 31 28.4537 31C28.4392 31 28.4246 31 28.4101 31C28.3956 31 28.3811 31 28.3665 31C28.352 31 28.3375 31 28.3229 31C28.3084 31 28.2938 31 28.2793 31C28.2647 31 28.2502 31 28.2356 31C28.2211 31 28.2065 31 28.1919 31C28.1774 31 28.1628 31 28.1482 31C28.1336 31 28.1191 31 28.1045 31C28.0899 31 28.0753 31 28.0607 31C28.0461 31 28.0315 31 28.0169 31C28.0023 31 27.9877 31 27.9731 31C27.9585 31 27.9439 31 27.9293 31C27.9146 31 27.9 31 27.8854 31C27.8708 31 27.8562 31 27.8415 31C27.8269 31 27.8123 31 27.7976 31C27.783 31 27.7683 31 27.7537 31C27.7391 31 27.7244 31 27.7098 31C27.6951 31 27.6805 31 27.6658 31C27.6511 31 27.6365 31 27.6218 31C27.6072 31 27.5925 31 27.5778 31C27.5632 31 27.5485 31 27.5338 31C27.5191 31 27.5044 31 27.4898 31C27.4751 31 27.4604 31 27.4457 31C27.431 31 27.4163 31 27.4016 31C27.3869 31 27.3723 31 27.3576 31C27.3429 31 27.3282 31 27.3135 31C27.2987 31 27.284 31 27.2693 31C27.2546 31 27.2399 31 27.2252 31C27.2105 31 27.1958 31 27.1811 31C27.1663 31 27.1516 31 27.1369 31C27.1222 31 27.1074 31 27.0927 31C27.078 31 27.0633 31 27.0485 31C27.0338 31 27.0191 31 27.0043 31C26.9896 31 26.9749 31 26.9601 31C26.9454 31 26.9306 31 26.9159 31C26.9012 31 26.8864 31 26.8717 31C26.8569 31 26.8422 31 26.8274 31C26.8127 31 26.7979 31 26.7832 31C26.7684 31 26.7537 31 26.7389 31C26.7241 31 26.7094 31 26.6946 31C26.6799 31 26.6651 31 26.6503 31C26.6356 31 26.6208 31 26.6061 31C26.5913 31 26.5765 31 26.5618 31C26.547 31 26.5322 31 26.5175 31C26.5027 31 26.4879 31 26.4731 31C26.4584 31 26.4436 31 26.4288 31C26.4141 31 26.3993 31 26.3845 31C26.3697 31 26.355 31 26.3402 31C26.3254 31 26.3106 31 26.2959 31C26.2811 31 26.2663 31 26.2515 31C26.2367 31 26.222 31 26.2072 31C26.1924 31 26.1776 31 26.1628 31C26.1481 31 26.1333 31 26.1185 31C26.1037 31 26.0889 31 26.0741 31C26.0594 31 26.0446 31 26.0298 31C26.015 31 26.0002 31 25.9854 31C25.9707 31 25.9559 31 25.9411 31C25.9263 31 25.9115 31 25.8968 31C25.882 31 25.8672 31 25.8524 31C25.8376 31 25.8228 31 25.8081 31C25.7933 31 25.7785 31 25.7637 31C25.7489 31 25.7341 31 25.7194 31C25.7046 31 25.6898 31 25.675 31C25.6602 31 25.6455 31 25.6307 31C25.6159 31 25.6011 31 25.5863 31C25.5716 31 25.5568 31 25.542 31C25.5272 31 25.5125 31 25.4977 31C25.4829 31 25.4681 31 25.4534 31C25.4386 31 25.4238 31 25.409 31C25.3943 31 25.3795 31 25.3647 31C25.35 31 25.3352 31 25.3204 31C25.3057 31 25.2909 31 25.2761 31C25.2614 31 25.2466 31 25.2318 31C25.2171 31 25.2023 31 25.1876 31C25.1728 31 25.158 31 25.1433 31C25.1285 31 25.1138 31 25.099 31C25.0843 31 25.0695 31 25.0548 31C25.04 31 25.0253 31 25.0105 31C24.9958 31 24.981 31 24.9663 31C24.9515 31 24.9368 31 24.922 31C24.9073 31 24.8926 31 24.8778 31C24.8631 31 24.8484 31 24.8336 31C24.8189 31 24.8042 31 24.7894 31C24.7747 31 24.76 31 24.7453 31C24.7305 31 24.7158 31 24.7011 31C24.6864 31 24.6717 31 24.6569 31C24.6422 31 24.6275 31 24.6128 31C24.5981 31 24.5834 31 24.5687 31C24.554 31 24.5393 31 24.5246 31C24.5099 31 24.4952 31 24.4805 31C24.4658 31 24.4511 31 24.4364 31C24.4217 31 24.407 31 24.3924 31C24.3777 31 24.363 31 24.3483 31C24.3336 31 24.319 31 24.3043 31C24.2896 31 24.275 31 24.2603 31C24.2456 31 24.231 31 24.2163 31C24.2016 31 24.187 31 24.1723 31C24.1577 31 24.143 31 24.1284 31C24.1137 31 24.0991 31 24.0845 31C24.0698 31 24.0552 31 24.0406 31C24.0259 31 24.0113 31 23.9967 31C23.982 31 23.9674 31 23.9528 31C23.9382 31 23.9236 31 23.909 31C23.8944 31 23.8797 31 23.8651 31C23.8505 31 23.8359 31 23.8213 31C23.8068 31 23.7922 31 23.7776 31C23.763 31 23.7484 31 23.7338 31C23.7192 31 23.7047 31 23.6901 31C23.6755 31 23.661 31 23.6464 31C23.6318 31 23.6173 31 23.6027 31C23.5882 31 23.5736 31 23.5591 31C23.5445 31 23.53 31 23.5155 31C23.5009 31 23.4864 31 23.4719 31C23.4573 31 23.4428 31 23.4283 31C23.4138 31 23.3993 31 23.3848 31C23.3703 31 23.3558 31 23.3413 31C23.3268 31 23.3123 31 23.2978 31C23.2833 31 23.2688 31 23.2543 31C23.2399 31 23.2254 31 23.2109 31C23.1964 31 23.182 31 23.1675 31C23.1531 31 23.1386 31 23.1242 31C23.1097 31 23.0953 31 23.0808 31C23.0664 31 23.052 31 23.0375 31C23.0231 31 23.0087 31 22.9943 31C22.9799 31 22.9655 31 22.9511 31C22.9366 31 22.9222 31 22.9079 31C22.8935 31 22.8791 31 22.8647 31C22.8503 31 22.8359 31 22.8216 31C22.8072 31 22.7928 31 22.7785 31C22.7641 31 22.7498 31 22.7354 31C22.7211 31 22.7067 31 22.6924 31C22.6781 31 22.6637 31 22.6494 31C22.6351 31 22.6208 31 22.6065 31C22.5922 31 22.5779 31 22.5636 31C22.5493 31 22.535 31 22.5207 31C22.5064 31 22.4921 31 22.4779 31C22.4636 31 22.4493 31 22.4351 31C22.4208 31 22.4065 31 22.3923 31C22.3781 31 22.3638 31 22.3496 31C22.3354 31 22.3211 31 22.3069 31C22.2927 31 22.2785 31 22.2643 31C22.2501 31 22.2359 31 22.2217 31C22.2075 31 22.1933 31 22.1791 31C22.165 31 22.1508 31 22.1366 31C22.1225 31 22.1083 31 22.0942 31C22.08 31 22.0659 31 22.0517 31C22.0376 31 22.0235 31 22.0094 31C21.9952 31 21.9811 31 21.967 31C21.9529 31 21.9388 31 21.9247 31C21.9107 31 21.8966 31 21.8825 31C21.8684 31 21.8544 31 21.8403 31C21.8262 31 21.8122 31 21.7981 31C21.7841 31 21.7701 31 21.756 31C21.742 31 21.728 31 21.714 31C21.7 31 21.686 31 21.672 31C21.658 31 21.644 31 21.63 31C21.616 31 21.6021 31 21.5881 31C21.5741 31 21.5602 31 21.5462 31C21.5323 31 21.5184 31 21.5044 31C21.4905 31 21.4766 31 21.4627 31C21.4488 31 21.4348 31 21.421 31C21.4071 31 21.3932 31 21.3793 31C21.3654 31 21.3515 31 21.3377 31C21.3238 31 21.31 31 21.2961 31C21.2823 31 21.2684 31 21.2546 31C21.2408 31 21.227 31 21.2132 31C21.1994 31 21.1856 31 21.1718 31C21.158 31 21.1442 31 21.1304 31C21.1167 31 21.1029 31 21.0891 31C21.0754 31 21.0616 31 21.0479 31C21.0342 31 21.0205 31 21.0067 31C20.993 31 20.9793 31 20.9656 31C20.9519 31 20.9382 31 20.9246 31C20.9109 31 20.8972 31 20.8835 31C20.8699 31 20.8562 31 20.8426 31C20.829 31 20.8153 31 20.8017 31C20.7881 31 20.7745 31 20.7609 31C20.7473 31 20.7337 31 20.7201 31C20.7065 31 20.6929 31 20.6794 31C20.6658 31 20.6523 31 20.6387 31C20.6252 31 20.6117 31 20.5981 31C20.5846 31 20.5711 31 20.5576 31C20.5441 31 20.5306 31 20.5171 31C20.5037 31 20.4902 31 20.4767 31C20.4633 31 20.4498 31 20.4364 31C20.4229 31 20.4095 31 20.3961 31C20.3827 31 20.3693 31 20.3559 31C20.3425 31 20.3291 31 20.3157 31C20.3024 31 20.289 31 20.2756 31C20.2623 31 20.2489 31 20.2356 31C20.2223 31 20.209 31 20.1957 31C20.1823 31 20.1691 31 20.1558 31C20.1425 31 20.1292 31 20.1159 31C20.1027 31 20.0894 31 20.0762 31C20.0629 31 20.0497 31 20.0365 31C20.0233 31 20.0101 31 19.9969 31C19.9837 31 19.9705 31 19.9573 31C19.9441 31 19.931 31 19.9178 31C19.9047 31 19.8915 31 19.8784 31C19.8653 31 19.8522 31 19.8391 31C19.826 31 19.8129 31 19.7998 31C19.7867 31 19.7736 31 19.7606 31C19.7475 31 19.7345 31 19.7214 31C19.7084 31 19.6954 31 19.6824 31C19.6694 31 19.6564 31 19.6434 31C19.6304 31 19.6174 31 19.6045 31C19.5915 31 19.5786 31 19.5656 31C19.5527 31 19.5398 31 19.5269 31C19.514 31 19.5011 31 19.4882 31C19.4753 31 19.4624 31 19.4496 31C19.4367 31 19.4239 31 19.411 31C19.3982 31 19.3854 31 19.3726 31C19.3597 31 19.3469 31 19.3342 31C19.3214 31 19.3086 31 19.2958 31C19.2831 31 19.2703 31 19.2576 31C19.2449 31 19.2322 31 19.2195 31C19.2067 31 19.1941 31 19.1814 31C19.1687 31 19.156 31 19.1434 31C19.1307 31 19.1181 31 19.1054 31C19.0928 31 19.0802 31 19.0676 31C19.055 31 19.0424 31 19.0298 31C19.0173 31 19.0047 31 18.9922 31C18.9796 31 18.9671 31 18.9546 31C18.942 31 18.9295 31 18.917 31C18.9046 31 18.8921 31 18.8796 31C18.8671 31 18.8547 31 18.8423 31C18.8298 31 18.8174 31 18.805 31C18.7926 31 18.7802 31 18.7678 31C18.7554 31 18.7431 31 18.7307 31C18.7184 31 18.706 31 18.6937 31C18.6814 31 18.6691 31 18.6568 31C18.6445 31 18.6322 31 18.6199 31C18.6077 31 18.5954 31 18.5832 31C18.5709 31 18.5587 31 18.5465 31C18.5343 31 18.5221 31 18.5099 31C18.4977 31 18.4856 31 18.4734 31C18.4613 31 18.4491 31 18.437 31C18.4249 31 18.4128 31 18.4007 31C18.3886 31 18.3765 31 18.3645 31C18.3524 31 18.3403 31 18.3283 31C18.3163 31 18.3043 31 18.2923 31C18.2803 31 18.2683 31 18.2563 31C18.2443 31 18.2324 31 18.2204 31C18.2085 31 18.1966 31 18.1847 31C18.1728 31 18.1609 31 18.149 31C18.1371 31 18.1252 31 18.1134 31C18.1015 31 18.0897 31 18.0779 31C18.0661 31 18.0543 31 18.0425 31C18.0307 31 18.0189 31 18.0072 31C17.9954 31 17.9837 31 17.972 31C17.9602 31 17.9485 31 17.9368 31C17.9252 31 17.9135 31 17.9018 31C17.8902 31 17.8785 31 17.8669 31C17.8553 31 17.8437 31 17.8321 31C17.8205 31 17.8089 31 17.7973 31C17.7858 31 17.7742 31 17.7627 31C17.7512 31 17.7396 31 17.7282 31C17.7167 31 17.7052 31 17.6937 31C17.6822 31 17.6708 31 17.6594 31C17.6479 31 17.6365 31 17.6251 31C17.6137 31 17.6024 31 17.591 31C17.5796 31 17.5683 31 17.557 31C17.5456 31 17.5343 31 17.523 31C17.5117 31 17.5004 31 17.4892 31C17.4779 31 17.4667 31 17.4554 31C17.4442 31 17.433 31 17.4218 31C17.4106 31 17.3994 31 17.3883 31C17.3771 31 17.366 31 17.3549 31C17.3437 31 17.3326 31 17.3215 31C17.3104 31 17.2994 31 17.2883 31C17.2773 31 17.2662 31 17.2552 31C17.2442 31 17.2332 31 17.2222 31C17.2112 31 17.2002 31 17.1893 31C17.1784 31 17.1674 31 17.1565 31C17.1456 31 17.1347 31 17.1238 31C17.1129 31 17.1021 31 17.0912 31C17.0804 31 17.0696 31 17.0588 31C17.048 31 17.0372 31 17.0264 31C17.0156 31 17.0049 31 16.9942 31C16.9834 31 16.9727 31 16.962 31C16.9513 31 16.9406 31 16.93 31C16.9193 31 16.9087 31 16.8981 31C16.8874 31 16.8768 31 16.8662 31C16.8557 31 16.8451 31 16.8345 31C16.824 31 16.8135 31 16.803 31C16.7924 31 16.782 31 16.7715 31C16.761 31 16.7506 31 16.7401 31C16.7297 31 16.7193 31 16.7089 31C16.6985 31 16.6881 31 16.6777 31C16.6674 31 16.657 31 16.6467 31C16.6364 31 16.6261 31 16.6158 31C16.6055 31 16.5953 31 16.585 31C16.5748 31 16.5645 31 16.5543 31C16.5441 31 16.5339 31 16.5238 31C16.5136 31 16.5035 31 16.4933 31C16.4832 31 16.4731 31 16.463 31C16.4529 31 16.4429 31 16.4328 31C16.4228 31 16.4127 31 16.4027 31C16.3927 31 16.3827 31 16.3728 31C16.3628 31 16.3528 31 16.3429 31C16.333 31 16.3231 31 16.3132 31C16.3033 31 16.2934 31 16.2836 31C16.2737 31 16.2639 31 16.2541 31C16.2443 31 16.2345 31 16.2247 31C16.2149 31 16.2052 31 16.1955 31C16.1857 31 16.176 31 16.1663 31C16.1567 31 16.147 31 16.1373 31C16.1277 31 16.1181 31 16.1085 31C16.0989 31 16.0893 31 16.0797 31C16.0702 31 16.0606 31 16.0511 31C16.0416 31 16.0321 31 16.0226 31C16.0131 31 16.0036 31 15.9942 31C15.9848 31 15.9754 31 15.966 31C15.9566 31 15.9472 31 15.9378 31C15.9285 31 15.9191 31 15.9098 31C15.9005 31 15.8912 31 15.882 31C15.8727 31 15.8634 31 15.8542 31C15.845 31 15.8358 31 15.8266 31C15.8174 31 15.8083 31 15.7991 31C15.79 31 15.7809 31 15.7718 31C15.7627 31 15.7536 31 15.7445 31C15.7355 31 15.7264 31 15.7174 31C15.7084 31 15.6994 31 15.6905 31C15.6815 31 15.6726 31 15.6636 31C15.6547 31 15.6458 31 15.6369 31C15.6281 31 15.6192 31 15.6104 31C15.6015 31 15.5927 31 15.5839 31C15.5751 31 15.5664 31 15.5576 31C15.5489 31 15.5401 31 15.5314 31C15.5227 31 15.5141 31 15.5054 31C15.4967 31 15.4881 31 15.4795 31C15.4709 31 15.4623 31 15.4537 31C15.4452 31 15.4366 31 15.4281 31C15.4196 31 15.4111 31 15.4026 31C15.3941 31 15.3857 31 15.3772 31C15.3688 31 15.3604 31 15.352 31C15.3436 31 15.3353 31 15.3269 31C15.3186 31 15.3103 31 15.302 31C15.2937 31 15.2854 31 15.2772 31C15.2689 31 15.2607 31 15.2525 31C15.2443 31 15.2361 31 15.228 31C15.2198 31 15.2117 31 15.2036 31C15.1955 31 15.1874 31 15.1794 31C15.1713 31 15.1633 31 15.1553 31C15.1472 31 15.1393 31 15.1313 31C15.1233 31 15.1154 31 15.1075 31C15.0995 31 15.0917 31 15.0838 31C15.0759 31 15.0681 31 15.0602 31C15.0524 31 15.0446 31 15.0369 31C15.0291 31 15.0213 31 15.0136 31C15.0059 31 14.9982 31 14.9905 31C14.9828 31 14.9752 31 14.9675 31C14.9599 31 14.9523 31 14.9447 31C14.9371 31 14.9296 31 14.9221 31C14.9145 31 14.907 31 14.8995 31C14.8921 31 14.8846 31 14.8772 31C14.8697 31 14.8623 31 14.8549 31C14.8476 31 14.8402 31 14.8329 31C14.8255 31 14.8182 31 14.8109 31C14.8036 31 14.7964 31 14.7891 31C14.7819 31 14.7747 31 14.7675 31C14.7603 31 14.7532 31 14.746 31C14.7389 31 14.7318 31 14.7247 31C14.7176 31 14.7106 31 14.7035 31C14.6965 31 14.6895 31 14.6825 31C14.6755 31 14.6686 31 14.6616 31C14.6547 31 14.6478 31 14.6409 31C14.634 31 14.6272 31 14.6203 31C14.6135 31 14.6067 31 14.5999 31C14.5931 31 14.5864 31 14.5796 31C14.5729 31 14.5662 31 14.5595 31C14.5529 31 14.5462 31 14.5396 31C14.533 31 14.5264 31 14.5198 31C14.5132 31 14.5067 31 14.5001 31C14.4936 31 14.4871 31 14.4806 31C14.4742 31 14.4677 31 14.4613 31C14.4549 31 14.4485 31 14.4421 31C14.4358 31 14.4294 31 14.4231 31C14.4168 31 14.4105 31 14.4043 31C14.398 31 14.3918 31 14.3856 31C14.3794 31 14.3732 31 14.367 31C14.3609 31 14.3548 31 14.3487 31C14.3426 31 14.3365 31 14.3304 31C14.3244 31 14.3184 31 14.3124 31C14.3064 31 14.3004 31 14.2945 31C14.2886 31 14.2826 31 14.2768 31C14.2709 31 14.265 31 14.2592 31C14.2534 31 14.2476 31 14.2418 31C14.236 31 14.2303 31 14.2245 31C14.2188 31 14.2131 31 14.2075 31C14.2018 31 14.1962 31 14.1905 31C14.1849 31 14.1793 31 14.1738 31C14.1682 31 14.1627 31 14.1572 31C14.1517 31 14.1462 31 14.1408 31C14.1353 31 14.1299 31 14.1245 31C14.1191 31 14.1138 31 14.1084 31C14.1031 31 14.0978 31 14.0925 31C14.0872 31 14.082 31 14.0768 31C14.0715 31 14.0664 31 14.0612 31C14.056 31 14.0509 31 14.0458 31C14.0407 31 14.0356 31 14.0305 31C14.0255 31 14.0204 31 14.0155 31C14.0105 31 14.0055 31 14.0005 31C13.9956 31 13.9907 31 13.9858 31C13.9809 31 13.9761 31 13.9712 31C13.9664 31 13.9616 31 13.9569 31C13.9521 31 13.9473 31 13.9426 31C13.9379 31 13.9332 31 13.9286 31C13.9239 31 13.9193 31 13.9147 31C13.9101 31 13.9056 31 13.901 31C13.8965 31 13.892 31 13.8875 31C13.883 31 13.8786 31 13.8741 31C13.8697 31 13.8653 31 13.861 31C13.8566 31 13.8523 31 13.848 31C13.8437 31 13.8394 31 13.8351 31C13.8309 31 13.8267 31 13.8225 31C13.8183 31 13.8141 31 13.81 31C13.8059 31 13.8018 31 13.7977 31C13.7937 31 13.7896 31 13.7856 31C13.7816 31 13.7776 31 13.7737 31C13.7697 31 13.7658 31 13.7619 31C13.758 31 13.7542 31 13.7503 31C13.7465 31 13.7427 31 13.7389 31C13.7352 31 13.7314 31 13.7277 31C13.724 31 13.7203 31 13.7167 31C13.713 31 13.7094 31 13.7058 31C13.7023 31 13.6987 31 13.6952 31C13.6916 31 13.6881 31 13.6847 31C13.6812 31 13.6778 31 13.6744 31C13.671 31 13.6676 31 13.6643 31C13.6609 31 13.6576 31 13.6543 31C13.651 31 13.6478 31 13.6446 31C13.6413 31 13.6381 31 13.635 31C13.6318 31 13.6287 31 13.6256 31C13.6225 31 13.6194 31 13.6164 31C13.6134 31 13.6104 31 13.6074 31C13.6044 31 13.6015 31 13.5986 31C13.5957 31 13.5928 31 13.5899 31C13.5871 31 13.5843 31 13.5815 31C13.5787 31 13.576 31 13.5732 31C13.5705 31 13.5678 31 13.5652 31C13.5625 31 13.5599 31 13.5573 31C13.5547 31 13.5521 31 13.5496 31C13.5471 31 13.5446 31 13.5421 31C13.5396 31 13.5372 31 13.5348 31C13.5324 31 13.53 31 13.5277 31C13.5253 31 13.523 31 13.5207 31C13.5185 31 13.5162 31 13.514 31C13.5118 31 13.5096 31 13.5075 31C13.5053 31 13.5032 31 13.5011 31C13.499 31 13.497 31 13.495 31C13.4929 31 13.491 31 13.489 31C13.4871 31 13.4851 31 13.4832 31C13.4814 31 13.4795 31 13.4777 31C13.4759 31 13.4741 31 13.4723 31C13.4705 31 13.4688 31 13.4671 31C13.4654 31 13.4638 31 13.4622 31C13.4605 31 13.4589 31 13.4574 31C13.4558 31 13.4543 31 13.4528 31C13.4513 31 13.4498 31 13.4484 31C13.447 31 13.4456 31 13.4442 31C13.4429 31 13.4415 31 13.4402 31C13.4389 31 13.4377 31 13.4364 31C13.4352 31 13.434 31 13.4329 31C13.4317 31 13.4306 31 13.4295 31C13.4284 31 13.4273 31 13.4263 31C13.4253 31 13.4243 31 13.4233 31C13.4223 31 13.4214 31 13.4205 31C13.4196 31 13.4188 31 13.4179 31C13.4171 31 13.4163 31 13.4156 31C13.4148 31 13.4141 31 13.4134 31C13.4127 31 13.4121 31 13.4114 31C13.4108 31 13.4102 31 13.4097 31C13.4091 31 13.4086 31 13.4081 31C13.4076 31 13.4072 31 13.4068 31C13.4064 31 13.406 31 13.4056 31C13.4053 31 13.405 31 13.4047 31C13.4044 31 13.4042 31 13.404 31C13.4038 31 13.4036 31 13.4034 31C13.4033 31 13.4032 31 13.4031 31C13.4031 31 13.403 31 13.403 33C13.403 35 13.4031 35 13.4031 35C13.4032 35 13.4033 35 13.4034 35C13.4036 35 13.4038 35 13.404 35C13.4042 35 13.4044 35 13.4047 35C13.405 35 13.4053 35 13.4056 35C13.406 35 13.4064 35 13.4068 35C13.4072 35 13.4076 35 13.4081 35C13.4086 35 13.4091 35 13.4097 35C13.4102 35 13.4108 35 13.4114 35C13.4121 35 13.4127 35 13.4134 35C13.4141 35 13.4148 35 13.4156 35C13.4163 35 13.4171 35 13.4179 35C13.4188 35 13.4196 35 13.4205 35C13.4214 35 13.4223 35 13.4233 35C13.4243 35 13.4253 35 13.4263 35C13.4273 35 13.4284 35 13.4295 35C13.4306 35 13.4317 35 13.4329 35C13.434 35 13.4352 35 13.4364 35C13.4377 35 13.4389 35 13.4402 35C13.4415 35 13.4429 35 13.4442 35C13.4456 35 13.447 35 13.4484 35C13.4498 35 13.4513 35 13.4528 35C13.4543 35 13.4558 35 13.4574 35C13.4589 35 13.4605 35 13.4622 35C13.4638 35 13.4654 35 13.4671 35C13.4688 35 13.4705 35 13.4723 35C13.4741 35 13.4759 35 13.4777 35C13.4795 35 13.4814 35 13.4832 35C13.4851 35 13.4871 35 13.489 35C13.491 35 13.4929 35 13.495 35C13.497 35 13.499 35 13.5011 35C13.5032 35 13.5053 35 13.5075 35C13.5096 35 13.5118 35 13.514 35C13.5162 35 13.5185 35 13.5207 35C13.523 35 13.5253 35 13.5277 35C13.53 35 13.5324 35 13.5348 35C13.5372 35 13.5396 35 13.5421 35C13.5446 35 13.5471 35 13.5496 35C13.5521 35 13.5547 35 13.5573 35C13.5599 35 13.5625 35 13.5652 35C13.5678 35 13.5705 35 13.5732 35C13.576 35 13.5787 35 13.5815 35C13.5843 35 13.5871 35 13.5899 35C13.5928 35 13.5957 35 13.5986 35C13.6015 35 13.6044 35 13.6074 35C13.6104 35 13.6134 35 13.6164 35C13.6194 35 13.6225 35 13.6256 35C13.6287 35 13.6318 35 13.635 35C13.6381 35 13.6413 35 13.6446 35C13.6478 35 13.651 35 13.6543 35C13.6576 35 13.6609 35 13.6643 35C13.6676 35 13.671 35 13.6744 35C13.6778 35 13.6812 35 13.6847 35C13.6881 35 13.6916 35 13.6952 35C13.6987 35 13.7023 35 13.7058 35C13.7094 35 13.713 35 13.7167 35C13.7203 35 13.724 35 13.7277 35C13.7314 35 13.7352 35 13.7389 35C13.7427 35 13.7465 35 13.7503 35C13.7542 35 13.758 35 13.7619 35C13.7658 35 13.7697 35 13.7737 35C13.7776 35 13.7816 35 13.7856 35C13.7896 35 13.7937 35 13.7977 35C13.8018 35 13.8059 35 13.81 35C13.8141 35 13.8183 35 13.8225 35C13.8267 35 13.8309 35 13.8351 35C13.8394 35 13.8437 35 13.848 35C13.8523 35 13.8566 35 13.861 35C13.8653 35 13.8697 35 13.8741 35C13.8786 35 13.883 35 13.8875 35C13.892 35 13.8965 35 13.901 35C13.9056 35 13.9101 35 13.9147 35C13.9193 35 13.9239 35 13.9286 35C13.9332 35 13.9379 35 13.9426 35C13.9473 35 13.9521 35 13.9569 35C13.9616 35 13.9664 35 13.9712 35C13.9761 35 13.9809 35 13.9858 35C13.9907 35 13.9956 35 14.0005 35C14.0055 35 14.0105 35 14.0155 35C14.0204 35 14.0255 35 14.0305 35C14.0356 35 14.0407 35 14.0458 35C14.0509 35 14.056 35 14.0612 35C14.0664 35 14.0715 35 14.0768 35C14.082 35 14.0872 35 14.0925 35C14.0978 35 14.1031 35 14.1084 35C14.1138 35 14.1191 35 14.1245 35C14.1299 35 14.1353 35 14.1408 35C14.1462 35 14.1517 35 14.1572 35C14.1627 35 14.1682 35 14.1738 35C14.1793 35 14.1849 35 14.1905 35C14.1962 35 14.2018 35 14.2075 35C14.2131 35 14.2188 35 14.2245 35C14.2303 35 14.236 35 14.2418 35C14.2476 35 14.2534 35 14.2592 35C14.265 35 14.2709 35 14.2768 35C14.2826 35 14.2886 35 14.2945 35C14.3004 35 14.3064 35 14.3124 35C14.3184 35 14.3244 35 14.3304 35C14.3365 35 14.3426 35 14.3487 35C14.3548 35 14.3609 35 14.367 35C14.3732 35 14.3794 35 14.3856 35C14.3918 35 14.398 35 14.4043 35C14.4105 35 14.4168 35 14.4231 35C14.4294 35 14.4358 35 14.4421 35C14.4485 35 14.4549 35 14.4613 35C14.4677 35 14.4742 35 14.4806 35C14.4871 35 14.4936 35 14.5001 35C14.5067 35 14.5132 35 14.5198 35C14.5264 35 14.533 35 14.5396 35C14.5462 35 14.5529 35 14.5595 35C14.5662 35 14.5729 35 14.5796 35C14.5864 35 14.5931 35 14.5999 35C14.6067 35 14.6135 35 14.6203 35C14.6272 35 14.634 35 14.6409 35C14.6478 35 14.6547 35 14.6616 35C14.6686 35 14.6755 35 14.6825 35C14.6895 35 14.6965 35 14.7035 35C14.7106 35 14.7176 35 14.7247 35C14.7318 35 14.7389 35 14.746 35C14.7532 35 14.7603 35 14.7675 35C14.7747 35 14.7819 35 14.7891 35C14.7964 35 14.8036 35 14.8109 35C14.8182 35 14.8255 35 14.8329 35C14.8402 35 14.8476 35 14.8549 35C14.8623 35 14.8697 35 14.8772 35C14.8846 35 14.8921 35 14.8995 35C14.907 35 14.9145 35 14.9221 35C14.9296 35 14.9371 35 14.9447 35C14.9523 35 14.9599 35 14.9675 35C14.9752 35 14.9828 35 14.9905 35C14.9982 35 15.0059 35 15.0136 35C15.0213 35 15.0291 35 15.0369 35C15.0446 35 15.0524 35 15.0602 35C15.0681 35 15.0759 35 15.0838 35C15.0917 35 15.0995 35 15.1075 35C15.1154 35 15.1233 35 15.1313 35C15.1393 35 15.1472 35 15.1553 35C15.1633 35 15.1713 35 15.1794 35C15.1874 35 15.1955 35 15.2036 35C15.2117 35 15.2198 35 15.228 35C15.2361 35 15.2443 35 15.2525 35C15.2607 35 15.2689 35 15.2772 35C15.2854 35 15.2937 35 15.302 35C15.3103 35 15.3186 35 15.3269 35C15.3353 35 15.3436 35 15.352 35C15.3604 35 15.3688 35 15.3772 35C15.3857 35 15.3941 35 15.4026 35C15.4111 35 15.4196 35 15.4281 35C15.4366 35 15.4452 35 15.4537 35C15.4623 35 15.4709 35 15.4795 35C15.4881 35 15.4967 35 15.5054 35C15.5141 35 15.5227 35 15.5314 35C15.5401 35 15.5489 35 15.5576 35C15.5664 35 15.5751 35 15.5839 35C15.5927 35 15.6015 35 15.6104 35C15.6192 35 15.6281 35 15.6369 35C15.6458 35 15.6547 35 15.6636 35C15.6726 35 15.6815 35 15.6905 35C15.6994 35 15.7084 35 15.7174 35C15.7264 35 15.7355 35 15.7445 35C15.7536 35 15.7627 35 15.7718 35C15.7809 35 15.79 35 15.7991 35C15.8083 35 15.8174 35 15.8266 35C15.8358 35 15.845 35 15.8542 35C15.8634 35 15.8727 35 15.882 35C15.8912 35 15.9005 35 15.9098 35C15.9191 35 15.9285 35 15.9378 35C15.9472 35 15.9566 35 15.966 35C15.9754 35 15.9848 35 15.9942 35C16.0036 35 16.0131 35 16.0226 35C16.0321 35 16.0416 35 16.0511 35C16.0606 35 16.0702 35 16.0797 35C16.0893 35 16.0989 35 16.1085 35C16.1181 35 16.1277 35 16.1373 35C16.147 35 16.1567 35 16.1663 35C16.176 35 16.1857 35 16.1955 35C16.2052 35 16.2149 35 16.2247 35C16.2345 35 16.2443 35 16.2541 35C16.2639 35 16.2737 35 16.2836 35C16.2934 35 16.3033 35 16.3132 35C16.3231 35 16.333 35 16.3429 35C16.3528 35 16.3628 35 16.3728 35C16.3827 35 16.3927 35 16.4027 35C16.4127 35 16.4228 35 16.4328 35C16.4429 35 16.4529 35 16.463 35C16.4731 35 16.4832 35 16.4933 35C16.5035 35 16.5136 35 16.5238 35C16.5339 35 16.5441 35 16.5543 35C16.5645 35 16.5748 35 16.585 35C16.5953 35 16.6055 35 16.6158 35C16.6261 35 16.6364 35 16.6467 35C16.657 35 16.6674 35 16.6777 35C16.6881 35 16.6985 35 16.7089 35C16.7193 35 16.7297 35 16.7401 35C16.7506 35 16.761 35 16.7715 35C16.782 35 16.7924 35 16.803 35C16.8135 35 16.824 35 16.8345 35C16.8451 35 16.8557 35 16.8662 35C16.8768 35 16.8874 35 16.8981 35C16.9087 35 16.9193 35 16.93 35C16.9406 35 16.9513 35 16.962 35C16.9727 35 16.9834 35 16.9942 35C17.0049 35 17.0156 35 17.0264 35C17.0372 35 17.048 35 17.0588 35C17.0696 35 17.0804 35 17.0912 35C17.1021 35 17.1129 35 17.1238 35C17.1347 35 17.1456 35 17.1565 35C17.1674 35 17.1784 35 17.1893 35C17.2002 35 17.2112 35 17.2222 35C17.2332 35 17.2442 35 17.2552 35C17.2662 35 17.2773 35 17.2883 35C17.2994 35 17.3104 35 17.3215 35C17.3326 35 17.3437 35 17.3549 35C17.366 35 17.3771 35 17.3883 35C17.3994 35 17.4106 35 17.4218 35C17.433 35 17.4442 35 17.4554 35C17.4667 35 17.4779 35 17.4892 35C17.5004 35 17.5117 35 17.523 35C17.5343 35 17.5456 35 17.557 35C17.5683 35 17.5796 35 17.591 35C17.6024 35 17.6137 35 17.6251 35C17.6365 35 17.6479 35 17.6594 35C17.6708 35 17.6822 35 17.6937 35C17.7052 35 17.7167 35 17.7282 35C17.7396 35 17.7512 35 17.7627 35C17.7742 35 17.7858 35 17.7973 35C17.8089 35 17.8205 35 17.8321 35C17.8437 35 17.8553 35 17.8669 35C17.8785 35 17.8902 35 17.9018 35C17.9135 35 17.9252 35 17.9368 35C17.9485 35 17.9602 35 17.972 35C17.9837 35 17.9954 35 18.0072 35C18.0189 35 18.0307 35 18.0425 35C18.0543 35 18.0661 35 18.0779 35C18.0897 35 18.1015 35 18.1134 35C18.1252 35 18.1371 35 18.149 35C18.1609 35 18.1728 35 18.1847 35C18.1966 35 18.2085 35 18.2204 35C18.2324 35 18.2443 35 18.2563 35C18.2683 35 18.2803 35 18.2923 35C18.3043 35 18.3163 35 18.3283 35C18.3403 35 18.3524 35 18.3645 35C18.3765 35 18.3886 35 18.4007 35C18.4128 35 18.4249 35 18.437 35C18.4491 35 18.4613 35 18.4734 35C18.4856 35 18.4977 35 18.5099 35C18.5221 35 18.5343 35 18.5465 35C18.5587 35 18.5709 35 18.5832 35C18.5954 35 18.6077 35 18.6199 35C18.6322 35 18.6445 35 18.6568 35C18.6691 35 18.6814 35 18.6937 35C18.706 35 18.7184 35 18.7307 35C18.7431 35 18.7554 35 18.7678 35C18.7802 35 18.7926 35 18.805 35C18.8174 35 18.8298 35 18.8423 35C18.8547 35 18.8671 35 18.8796 35C18.8921 35 18.9046 35 18.917 35C18.9295 35 18.942 35 18.9546 35C18.9671 35 18.9796 35 18.9922 35C19.0047 35 19.0173 35 19.0298 35C19.0424 35 19.055 35 19.0676 35C19.0802 35 19.0928 35 19.1054 35C19.1181 35 19.1307 35 19.1434 35C19.156 35 19.1687 35 19.1814 35C19.1941 35 19.2067 35 19.2195 35C19.2322 35 19.2449 35 19.2576 35C19.2703 35 19.2831 35 19.2958 35C19.3086 35 19.3214 35 19.3342 35C19.3469 35 19.3597 35 19.3726 35C19.3854 35 19.3982 35 19.411 35C19.4239 35 19.4367 35 19.4496 35C19.4624 35 19.4753 35 19.4882 35C19.5011 35 19.514 35 19.5269 35C19.5398 35 19.5527 35 19.5656 35C19.5786 35 19.5915 35 19.6045 35C19.6174 35 19.6304 35 19.6434 35C19.6564 35 19.6694 35 19.6824 35C19.6954 35 19.7084 35 19.7214 35C19.7345 35 19.7475 35 19.7606 35C19.7736 35 19.7867 35 19.7998 35C19.8129 35 19.826 35 19.8391 35C19.8522 35 19.8653 35 19.8784 35C19.8915 35 19.9047 35 19.9178 35C19.931 35 19.9441 35 19.9573 35C19.9705 35 19.9837 35 19.9969 35C20.0101 35 20.0233 35 20.0365 35C20.0497 35 20.0629 35 20.0762 35C20.0894 35 20.1027 35 20.1159 35C20.1292 35 20.1425 35 20.1558 35C20.1691 35 20.1823 35 20.1957 35C20.209 35 20.2223 35 20.2356 35C20.2489 35 20.2623 35 20.2756 35C20.289 35 20.3024 35 20.3157 35C20.3291 35 20.3425 35 20.3559 35C20.3693 35 20.3827 35 20.3961 35C20.4095 35 20.4229 35 20.4364 35C20.4498 35 20.4633 35 20.4767 35C20.4902 35 20.5037 35 20.5171 35C20.5306 35 20.5441 35 20.5576 35C20.5711 35 20.5846 35 20.5981 35C20.6117 35 20.6252 35 20.6387 35C20.6523 35 20.6658 35 20.6794 35C20.6929 35 20.7065 35 20.7201 35C20.7337 35 20.7473 35 20.7609 35C20.7745 35 20.7881 35 20.8017 35C20.8153 35 20.829 35 20.8426 35C20.8562 35 20.8699 35 20.8835 35C20.8972 35 20.9109 35 20.9246 35C20.9382 35 20.9519 35 20.9656 35C20.9793 35 20.993 35 21.0067 35C21.0205 35 21.0342 35 21.0479 35C21.0616 35 21.0754 35 21.0891 35C21.1029 35 21.1167 35 21.1304 35C21.1442 35 21.158 35 21.1718 35C21.1856 35 21.1994 35 21.2132 35C21.227 35 21.2408 35 21.2546 35C21.2684 35 21.2823 35 21.2961 35C21.31 35 21.3238 35 21.3377 35C21.3515 35 21.3654 35 21.3793 35C21.3932 35 21.4071 35 21.421 35C21.4348 35 21.4488 35 21.4627 35C21.4766 35 21.4905 35 21.5044 35C21.5184 35 21.5323 35 21.5462 35C21.5602 35 21.5741 35 21.5881 35C21.6021 35 21.616 35 21.63 35C21.644 35 21.658 35 21.672 35C21.686 35 21.7 35 21.714 35C21.728 35 21.742 35 21.756 35C21.7701 35 21.7841 35 21.7981 35C21.8122 35 21.8262 35 21.8403 35C21.8544 35 21.8684 35 21.8825 35C21.8966 35 21.9107 35 21.9247 35C21.9388 35 21.9529 35 21.967 35C21.9811 35 21.9952 35 22.0094 35C22.0235 35 22.0376 35 22.0517 35C22.0659 35 22.08 35 22.0942 35C22.1083 35 22.1225 35 22.1366 35C22.1508 35 22.165 35 22.1791 35C22.1933 35 22.2075 35 22.2217 35C22.2359 35 22.2501 35 22.2643 35C22.2785 35 22.2927 35 22.3069 35C22.3211 35 22.3354 35 22.3496 35C22.3638 35 22.3781 35 22.3923 35C22.4065 35 22.4208 35 22.4351 35C22.4493 35 22.4636 35 22.4779 35C22.4921 35 22.5064 35 22.5207 35C22.535 35 22.5493 35 22.5636 35C22.5779 35 22.5922 35 22.6065 35C22.6208 35 22.6351 35 22.6494 35C22.6637 35 22.6781 35 22.6924 35C22.7067 35 22.7211 35 22.7354 35C22.7498 35 22.7641 35 22.7785 35C22.7928 35 22.8072 35 22.8216 35C22.8359 35 22.8503 35 22.8647 35C22.8791 35 22.8935 35 22.9079 35C22.9222 35 22.9366 35 22.9511 35C22.9655 35 22.9799 35 22.9943 35C23.0087 35 23.0231 35 23.0375 35C23.052 35 23.0664 35 23.0808 35C23.0953 35 23.1097 35 23.1242 35C23.1386 35 23.1531 35 23.1675 35C23.182 35 23.1964 35 23.2109 35C23.2254 35 23.2399 35 23.2543 35C23.2688 35 23.2833 35 23.2978 35C23.3123 35 23.3268 35 23.3413 35C23.3558 35 23.3703 35 23.3848 35C23.3993 35 23.4138 35 23.4283 35C23.4428 35 23.4573 35 23.4719 35C23.4864 35 23.5009 35 23.5155 35C23.53 35 23.5445 35 23.5591 35C23.5736 35 23.5882 35 23.6027 35C23.6173 35 23.6318 35 23.6464 35C23.661 35 23.6755 35 23.6901 35C23.7047 35 23.7192 35 23.7338 35C23.7484 35 23.763 35 23.7776 35C23.7922 35 23.8068 35 23.8213 35C23.8359 35 23.8505 35 23.8651 35C23.8797 35 23.8944 35 23.909 35C23.9236 35 23.9382 35 23.9528 35C23.9674 35 23.982 35 23.9967 35C24.0113 35 24.0259 35 24.0406 35C24.0552 35 24.0698 35 24.0845 35C24.0991 35 24.1137 35 24.1284 35C24.143 35 24.1577 35 24.1723 35C24.187 35 24.2016 35 24.2163 35C24.231 35 24.2456 35 24.2603 35C24.275 35 24.2896 35 24.3043 35C24.319 35 24.3336 35 24.3483 35C24.363 35 24.3777 35 24.3924 35C24.407 35 24.4217 35 24.4364 35C24.4511 35 24.4658 35 24.4805 35C24.4952 35 24.5099 35 24.5246 35C24.5393 35 24.554 35 24.5687 35C24.5834 35 24.5981 35 24.6128 35C24.6275 35 24.6422 35 24.6569 35C24.6717 35 24.6864 35 24.7011 35C24.7158 35 24.7305 35 24.7453 35C24.76 35 24.7747 35 24.7894 35C24.8042 35 24.8189 35 24.8336 35C24.8484 35 24.8631 35 24.8778 35C24.8926 35 24.9073 35 24.922 35C24.9368 35 24.9515 35 24.9663 35C24.981 35 24.9958 35 25.0105 35C25.0253 35 25.04 35 25.0548 35C25.0695 35 25.0843 35 25.099 35C25.1138 35 25.1285 35 25.1433 35C25.158 35 25.1728 35 25.1876 35C25.2023 35 25.2171 35 25.2318 35C25.2466 35 25.2614 35 25.2761 35C25.2909 35 25.3057 35 25.3204 35C25.3352 35 25.35 35 25.3647 35C25.3795 35 25.3943 35 25.409 35C25.4238 35 25.4386 35 25.4534 35C25.4681 35 25.4829 35 25.4977 35C25.5125 35 25.5272 35 25.542 35C25.5568 35 25.5716 35 25.5863 35C25.6011 35 25.6159 35 25.6307 35C25.6455 35 25.6602 35 25.675 35C25.6898 35 25.7046 35 25.7194 35C25.7341 35 25.7489 35 25.7637 35C25.7785 35 25.7933 35 25.8081 35C25.8228 35 25.8376 35 25.8524 35C25.8672 35 25.882 35 25.8968 35C25.9115 35 25.9263 35 25.9411 35C25.9559 35 25.9707 35 25.9854 35C26.0002 35 26.015 35 26.0298 35C26.0446 35 26.0594 35 26.0741 35C26.0889 35 26.1037 35 26.1185 35C26.1333 35 26.1481 35 26.1628 35C26.1776 35 26.1924 35 26.2072 35C26.222 35 26.2367 35 26.2515 35C26.2663 35 26.2811 35 26.2959 35C26.3106 35 26.3254 35 26.3402 35C26.355 35 26.3697 35 26.3845 35C26.3993 35 26.4141 35 26.4288 35C26.4436 35 26.4584 35 26.4731 35C26.4879 35 26.5027 35 26.5175 35C26.5322 35 26.547 35 26.5618 35C26.5765 35 26.5913 35 26.6061 35C26.6208 35 26.6356 35 26.6503 35C26.6651 35 26.6799 35 26.6946 35C26.7094 35 26.7241 35 26.7389 35C26.7537 35 26.7684 35 26.7832 35C26.7979 35 26.8127 35 26.8274 35C26.8422 35 26.8569 35 26.8717 35C26.8864 35 26.9012 35 26.9159 35C26.9306 35 26.9454 35 26.9601 35C26.9749 35 26.9896 35 27.0043 35C27.0191 35 27.0338 35 27.0485 35C27.0633 35 27.078 35 27.0927 35C27.1074 35 27.1222 35 27.1369 35C27.1516 35 27.1663 35 27.1811 35C27.1958 35 27.2105 35 27.2252 35C27.2399 35 27.2546 35 27.2693 35C27.284 35 27.2987 35 27.3135 35C27.3282 35 27.3429 35 27.3576 35C27.3723 35 27.3869 35 27.4016 35C27.4163 35 27.431 35 27.4457 35C27.4604 35 27.4751 35 27.4898 35C27.5044 35 27.5191 35 27.5338 35C27.5485 35 27.5632 35 27.5778 35C27.5925 35 27.6072 35 27.6218 35C27.6365 35 27.6511 35 27.6658 35C27.6805 35 27.6951 35 27.7098 35C27.7244 35 27.7391 35 27.7537 35C27.7683 35 27.783 35 27.7976 35C27.8123 35 27.8269 35 27.8415 35C27.8562 35 27.8708 35 27.8854 35C27.9 35 27.9146 35 27.9293 35C27.9439 35 27.9585 35 27.9731 35C27.9877 35 28.0023 35 28.0169 35C28.0315 35 28.0461 35 28.0607 35C28.0753 35 28.0899 35 28.1045 35C28.1191 35 28.1336 35 28.1482 35C28.1628 35 28.1774 35 28.1919 35C28.2065 35 28.2211 35 28.2356 35C28.2502 35 28.2647 35 28.2793 35C28.2938 35 28.3084 35 28.3229 35C28.3375 35 28.352 35 28.3665 35C28.3811 35 28.3956 35 28.4101 35C28.4246 35 28.4392 35 28.4537 35C28.4682 35 28.4827 35 28.4972 35C28.5117 35 28.5262 35 28.5407 35C28.5552 35 28.5697 35 28.5842 35C28.5987 35 28.6131 35 28.6276 35C28.6421 35 28.6566 35 28.671 35C28.6855 35 28.7 35 28.7144 35C28.7289 35 28.7433 35 28.7578 35C28.7722 35 28.7867 35 28.8011 35C28.8155 35 28.8299 35 28.8444 35C28.8588 35 28.8732 35 28.8876 35C28.902 35 28.9164 35 28.9308 35C28.9452 35 28.9596 35 28.974 35C28.9884 35 29.0028 35 29.0172 35C29.0316 35 29.0459 35 29.0603 35C29.0747 35 29.089 35 29.1034 35C29.1177 35 29.1321 35 29.1464 35C29.1608 35 29.1751 35 29.1894 35C29.2038 35 29.2181 35 29.2324 35C29.2467 35 29.2611 35 29.2754 35C29.2897 35 29.304 35 29.3183 35C29.3326 35 29.3468 35 29.3611 35C29.3754 35 29.3897 35 29.4039 35C29.4182 35 29.4325 35 29.4467 35C29.461 35 29.4752 35 29.4895 35C29.5037 35 29.5179 35 29.5322 35C29.5464 35 29.5606 35 29.5748 35C29.5891 35 29.6033 35 29.6175 35C29.6317 35 29.6459 35 29.66 35C29.6742 35 29.6884 35 29.7026 35C29.7168 35 29.7309 35 29.7451 35C29.7592 35 29.7734 35 29.7875 35V33Z" fill="#85888A"/>
<path d="M10.0718 35H6.55324C4.79398 35 3.3125 33.8289 3.3125 32.4382V17.2954C3.3125 16.0493 4.79398 15 6.55324 15H10.0718C11.831 15 13.3125 16.0493 13.3125 17.2954V32.4382C13.3125 33.8289 11.831 35 10.0718 35Z" stroke="#85888A" stroke-width="4" stroke-miterlimit="10"/>
</svg>
