<svg width="28" height="28" viewBox="0 0 28 28" fill="none" xmlns="http://www.w3.org/2000/svg">
<path d="M14.2002 25.2243C14.0968 25.2243 13.9935 25.2243 13.8901 25.1209C9.03177 20.4693 6.9644 16.9548 6.65429 16.3346V16.2312C5.93071 14.9908 5.62061 13.5436 5.62061 12.0965C5.62061 7.44486 9.44525 3.62021 14.0968 3.51685H14.3036C19.0585 3.51685 22.9866 7.44486 22.9866 12.1998C22.9866 13.647 22.6764 14.9908 21.9529 16.2312L21.8495 16.3346C21.436 17.0581 19.2653 20.5727 14.6137 25.1209C14.4069 25.2243 14.3036 25.2243 14.2002 25.2243ZM14.2002 9.30549C12.6497 9.30549 11.4093 10.5459 11.4093 12.0965C11.4093 13.647 12.6497 14.8874 14.2002 14.8874C15.7507 14.8874 16.9912 13.647 16.9912 12.0965C16.9912 10.5459 15.7507 9.30549 14.2002 9.30549Z" fill="#D25F6A"/>
<path d="M14.1998 4.03369C18.6447 4.03369 22.3659 7.65159 22.3659 12.1998C22.3659 13.5436 22.0558 14.8874 21.4356 16.0245L21.3323 16.1278C20.9188 16.748 18.9548 20.1592 14.1998 24.7074C9.54822 20.2626 7.48085 16.748 7.06737 16.1278L6.96401 16.0245C6.34379 14.784 6.03369 13.4402 6.03369 12.0964C6.03369 7.75496 9.65159 4.13706 13.9931 4.03369C13.9931 4.03369 14.0964 4.03369 14.1998 4.03369ZM14.1998 15.5076C16.0605 15.5076 17.5076 13.9571 17.5076 12.1998C17.5076 10.4425 15.9571 8.89202 14.1998 8.89202C12.3392 8.89202 10.892 10.4425 10.892 12.1998C10.892 13.9571 12.3392 15.5076 14.1998 15.5076ZM14.1998 3C14.0964 3 13.9931 3 13.9931 3C9.13475 3.10337 5.10337 7.23812 5 12.0964C5 13.7503 5.41347 15.1975 6.03369 16.5413C6.34379 17.0582 8.41117 20.6761 13.4762 25.431C13.683 25.6378 13.8897 25.7411 14.1998 25.7411C14.4066 25.7411 14.7167 25.6378 14.82 25.431C19.8851 20.5727 21.9525 16.9548 22.2626 16.5413C22.9862 15.3009 23.2963 13.7503 23.2963 12.1998C23.3996 7.13475 19.2649 3 14.1998 3ZM14.1998 14.4739C12.9594 14.4739 11.9257 13.4402 11.9257 12.1998C11.9257 10.9594 12.9594 9.92571 14.1998 9.92571C15.4402 9.92571 16.4739 10.9594 16.4739 12.1998C16.4739 13.4402 15.4402 14.4739 14.1998 14.4739Z" fill="#93142D"/>
</svg>
