<svg width="28" height="28" viewBox="0 0 28 28" fill="none" xmlns="http://www.w3.org/2000/svg">
<mask id="mask0_12_103" style="mask-type:luminance" maskUnits="userSpaceOnUse" x="4" y="4" width="20" height="20">
<path d="M19.8947 24H8.10526C5.89474 24 4 22.2105 4 19.8947V8.10526C4 5.89474 5.78947 4 8.10526 4H19.8947C22.1053 4 24 5.78947 24 8.10526V19.8947C24 22.1053 22.1053 24 19.8947 24Z" fill="white"/>
</mask>
<g mask="url(#mask0_12_103)">
<path d="M24.3159 4H3.5791V24H24.3159V4Z" fill="#7FB2E0"/>
<path d="M24.0002 19.2632L17.5791 12.8422L11.6844 18.7369L8.94752 16.0001L3.5791 21.3685V24.0001H24.0002V19.2632Z" fill="#C9DDA3"/>
<path d="M23.9998 24.0001V19.2632L17.5788 12.8422C17.5788 12.8422 19.1577 18.6316 14.8419 21.8948L8.94719 16.0001C8.94719 16.0001 10.2103 20.4211 7.15771 24.0001H23.9998Z" fill="#98C000"/>
<path d="M3.5791 21.3684L8.94752 16L14.6317 21.5789" stroke="#046329" stroke-miterlimit="10" stroke-linecap="round" stroke-linejoin="round"/>
<path d="M11.6846 18.7369L17.5793 12.8422L24.0004 19.2632" stroke="#046329" stroke-miterlimit="10" stroke-linecap="round" stroke-linejoin="round"/>
</g>
<path d="M21.0526 24H6.94737C5.36842 24 4 22.6316 4 21.0526V6.94737C4 5.36842 5.36842 4 6.94737 4H21.0526C22.6316 4 24 5.36842 24 6.94737V21.0526C24 22.6316 22.6316 24 21.0526 24Z" stroke="#336EB6" stroke-miterlimit="10"/>
<path d="M9.57877 11.7895C10.9159 11.7895 11.9998 10.7056 11.9998 9.36844C11.9998 8.03133 10.9159 6.94739 9.57877 6.94739C8.24166 6.94739 7.15771 8.03133 7.15771 9.36844C7.15771 10.7056 8.24166 11.7895 9.57877 11.7895Z" fill="#FBCE77" stroke="#336EB6" stroke-miterlimit="10"/>
</svg>
