<svg width="27" height="27" viewBox="0 0 27 27" fill="none" xmlns="http://www.w3.org/2000/svg">
<path d="M21.56 5H5.44C4.09242 5 3 6.09242 3 7.44V20.56C3 21.9076 4.09242 23 5.44 23H21.56C22.9076 23 24 21.9076 24 20.56V7.44C24 6.09242 22.9076 5 21.56 5Z" fill="#ADB2B8"/>
<path d="M13.5 21C17.0899 21 20 18.0899 20 14.5C20 10.9101 17.0899 8 13.5 8C9.91015 8 7 10.9101 7 14.5C7 18.0899 9.91015 21 13.5 21Z" fill="#9DA1A6"/>
<path d="M13.5 19C15.9853 19 18 16.9853 18 14.5C18 12.0147 15.9853 10 13.5 10C11.0147 10 9 12.0147 9 14.5C9 16.9853 11.0147 19 13.5 19Z" fill="#565D68"/>
<path d="M13.5 17C14.8807 17 16 15.8807 16 14.5C16 13.1193 14.8807 12 13.5 12C12.1193 12 11 13.1193 11 14.5C11 15.8807 12.1193 17 13.5 17Z" fill="#CBE8F4"/>
<path d="M11 4H6V5H11V4Z" fill="#9DA1A6"/>
<path d="M22.15 6H20.85C20.3806 6 20 6.38056 20 6.85V8.15C20 8.61944 20.3806 9 20.85 9H22.15C22.6194 9 23 8.61944 23 8.15V6.85C23 6.38056 22.6194 6 22.15 6Z" fill="#CBE8F4"/>
</svg>
