<svg width="27" height="27" viewBox="0 0 27 27" fill="none" xmlns="http://www.w3.org/2000/svg">
<path d="M15.0057 7.61478L6.06787 16.5526L10.3105 20.7953L19.2483 11.8574L15.0057 7.61478Z" fill="#5F7FBA"/>
<path d="M10.3099 20.7838L5.35994 22.9138L3.93994 21.4938L6.05994 16.5438L10.3099 20.7838Z" fill="#F0D7C4"/>
<path d="M17.0011 5.60387L15 7.60498L19.2426 11.8476L21.2438 9.84651L17.0011 5.60387Z" fill="#CDD9DF"/>
<path d="M16.999 5.60925L17.7061 4.90215C18.7597 3.84856 20.4638 3.85563 21.5104 4.90215L21.9417 5.33348C22.9953 6.38707 22.9882 8.0912 21.9417 9.13772L21.2346 9.84482L16.999 5.60925Z" fill="#E58AB8"/>
<path d="M3 23.3839L3.47 23.8539L5.36 22.9139L3.94 21.4939L3 23.3839Z" fill="#595E6A"/>
</svg>
