<svg width="28" height="28" viewBox="0 0 28 28" fill="none" xmlns="http://www.w3.org/2000/svg">
<path d="M14.0002 24.3774C8.18885 24.3774 3.51904 19.7076 3.51904 14.0001C3.51904 8.18873 8.18885 3.51892 14.0002 3.51892C19.7077 3.51892 24.4813 8.18873 24.4813 14.0001C24.3775 19.7076 19.7077 24.3774 14.0002 24.3774Z" fill="#FBCE77"/>
<path d="M14 4.03774C19.5 4.03774 23.9623 8.5 23.9623 14C23.9623 19.5 19.5 23.9623 14 23.9623C8.5 23.9623 4.03774 19.3962 4.03774 14C4.03774 8.5 8.5 4.03774 14 4.03774ZM14 3C7.87736 3 3 7.87736 3 14C3 20.0189 7.87736 25 14 25C20.0189 25 25 20.1226 25 14C24.8962 7.87736 20.0189 3 14 3Z" fill="#F28E00"/>
<path d="M8.39642 15.2454C7.56623 15.2454 6.94359 16.0755 7.25491 16.9057C8.39642 19.3963 10.887 21.1605 13.8964 21.1605C16.8021 21.1605 19.3964 19.3963 20.5379 16.9057C20.8492 16.1793 20.3304 15.2454 19.3964 15.2454H8.39642Z" fill="black"/>
<path d="M10.1602 20.1227C11.3017 20.8491 12.5469 21.2642 13.9998 21.2642C15.4526 21.2642 16.6979 20.8491 17.8394 20.1227C16.9054 18.9812 15.5564 18.2548 13.9998 18.2548C12.4432 18.2548 10.9903 18.9812 10.1602 20.1227Z" fill="#E94F0A"/>
<path d="M10.2641 12.7547C10.8945 12.7547 11.4056 12.0578 11.4056 11.1981C11.4056 10.3384 10.8945 9.64148 10.2641 9.64148C9.63363 9.64148 9.12256 10.3384 9.12256 11.1981C9.12256 12.0578 9.63363 12.7547 10.2641 12.7547Z" fill="black"/>
<path d="M17.6322 12.7547C18.2627 12.7547 18.7737 12.0578 18.7737 11.1981C18.7737 10.3384 18.2627 9.64148 17.6322 9.64148C17.0018 9.64148 16.4907 10.3384 16.4907 11.1981C16.4907 12.0578 17.0018 12.7547 17.6322 12.7547Z" fill="black"/>
</svg>
